<?xml version="1.0" standalone="no"?>
<!DOCTYPE svg PUBLIC "-//W3C//DTD SVG 1.1//EN" "http://www.w3.org/Graphics/SVG/1.1/DTD/svg11.dtd" >
<!--
2013-9-30: Created.
-->
<svg>
<metadata>
Created by iconfont
</metadata>
<defs>

<font id="iconfont" horiz-adv-x="1024" >
  <font-face
    font-family="iconfont"
    font-weight="500"
    font-stretch="normal"
    units-per-em="1024"
    ascent="896"
    descent="-128"
  />
    <missing-glyph />
    
    <glyph glyph-name="aligncenter" unicode="&#58901;" d="M0 832l1024 0 0-128-1024 0zM192 640l640 0 0-128-640 0zM192 256l640 0 0-128-640 0zM0 448l1024 0 0-128-1024 0zM0 64l1024 0 0-128-1024 0z"  horiz-adv-x="1024" />

    
    <glyph glyph-name="alignjustify" unicode="&#58902;" d="M0 832l1024 0 0-128-1024 0zM0 640l1024 0 0-128-1024 0zM0 448l1024 0 0-128-1024 0zM0 256l1024 0 0-128-1024 0zM0 64l1024 0 0-128-1024 0z"  horiz-adv-x="1024" />

    
    <glyph glyph-name="alignleft" unicode="&#58903;" d="M0 832l1024 0 0-128-1024 0zM0 640l640 0 0-128-640 0zM0 256l640 0 0-128-640 0zM0 448l1024 0 0-128-1024 0zM0 64l1024 0 0-128-1024 0z"  horiz-adv-x="1024" />

    
    <glyph glyph-name="aligncenter1" unicode="&#58904;" d="M0 832l1024 0 0-128-1024 0zM192 640l640 0 0-128-640 0zM192 256l640 0 0-128-640 0zM0 448l1024 0 0-128-1024 0zM0 64l1024 0 0-128-1024 0z"  horiz-adv-x="1024" />

    
    <glyph glyph-name="alignjustify1" unicode="&#58905;" d="M0 832l1024 0 0-128-1024 0zM0 640l1024 0 0-128-1024 0zM0 448l1024 0 0-128-1024 0zM0 256l1024 0 0-128-1024 0zM0 64l1024 0 0-128-1024 0z"  horiz-adv-x="1024" />

    
    <glyph glyph-name="alignleft1" unicode="&#58906;" d="M0 832l1024 0 0-128-1024 0zM0 640l640 0 0-128-640 0zM0 256l640 0 0-128-640 0zM0 448l1024 0 0-128-1024 0zM0 64l1024 0 0-128-1024 0z"  horiz-adv-x="1024" />

    
    <glyph glyph-name="alignright" unicode="&#58907;" d="M0 832l1024 0 0-128-1024 0zM384 640l640 0 0-128-640 0zM384 256l640 0 0-128-640 0zM0 448l1024 0 0-128-1024 0zM0 64l1024 0 0-128-1024 0z"  horiz-adv-x="1024" />

    
    <glyph glyph-name="anchor" unicode="&#58908;" d="M192 896l0-1024 320 320 320-320 0 1024-640 0zM768 26.496l-256 256-256-256 0 805.504 512 0 0-805.504z"  horiz-adv-x="1024" />

    
    <glyph glyph-name="blockquote" unicode="&#58909;" d="M224.992 448c123.712 0 224-100.288 224-224s-100.288-224-224-224-224 100.288-224 224l-0.992 32c0 247.424 200.576 448 448 448l0-128c-85.472 0-165.824-33.28-226.272-93.728-11.648-11.648-22.24-24.032-31.84-37.024 11.424 1.792 23.168 2.752 35.104 2.752zM800.992 448c123.712 0 224-100.288 224-224s-100.288-224-224-224-224 100.288-224 224l-0.992 32c0 247.424 200.576 448 448 448l0-128c-85.472 0-165.824-33.28-226.272-93.728-11.648-11.648-22.24-24.032-31.84-37.024 11.456 1.792 23.168 2.752 35.104 2.752z"  horiz-adv-x="1025" />

    
    <glyph glyph-name="bold" unicode="&#58910;" d="M707.872 411.36c37.504 44.544 60.128 102.016 60.128 164.64 0 141.152-114.848 256-256 256l-320 0 0-896 384 0c141.152 0 256 114.848 256 256 0 92.96-49.792 174.496-124.128 219.36zM384 704l101.504 0c55.968 0 101.504-57.408 101.504-128s-45.536-128-101.504-128l-101.504 0 0 256zM543.008 64l-159.008 0 0 256 159.008 0c58.464 0 106.016-57.408 106.016-128s-47.552-128-106.016-128z"  horiz-adv-x="1024" />

    
    <glyph glyph-name="char" unicode="&#58911;" d="M322.016 64l57.6 192 264.768 0 57.6-192 113.632 0-192 640-223.232 0-192-640 113.632 0zM475.616 576l72.768 0 57.6-192-187.968 0 57.6 192z"  horiz-adv-x="1024" />

    
    <glyph glyph-name="clearformat" unicode="&#58912;" d="M0 0l576 0 0-128-576 0zM192 896l704 0 0-128-704 0zM277.376 64l204.672 784.16 123.84-32.32-196.256-751.84zM929.76-128l-129.76 129.76-129.76-129.76-62.24 62.24 129.76 129.76-129.76 129.76 62.24 62.24 129.76-129.76 129.76 129.76 62.24-62.24-129.76-129.76 129.76-129.76z"  horiz-adv-x="1024" />

    
    <glyph glyph-name="code" unicode="&#58913;" d="M320 640l-256-256 256-256 128 0-256 256 256 256zM704 640l-128 0 256-256-256-256 128 0 256 256z"  horiz-adv-x="1024" />

    
    <glyph glyph-name="configure" unicode="&#58914;" d="M1024 303.552l0 160.928-159.136 15.904c-8.192 30.048-20.096 58.56-35.2 84.992l104.608 127.84-113.056 113.056-127.84-104.608c-26.432 15.136-54.944 27.04-84.992 35.2l-15.904 159.136-160.928 0-15.904-159.136c-30.048-8.192-58.56-20.096-84.992-35.2l-127.84 104.608-113.056-113.056 104.608-127.84c-15.136-26.432-27.04-54.944-35.2-84.992l-159.136-15.904 0-160.928 159.136-15.904c8.192-30.048 20.096-58.56 35.2-84.992l-104.608-127.84 113.056-113.056 127.84 104.608c26.432-15.136 54.944-27.04 84.992-35.2l15.904-159.136 160.928 0 15.904 159.136c30.048 8.192 58.56 20.096 84.992 35.2l127.84-104.608 113.056 113.056-104.608 127.84c15.136 26.432 27.04 54.944 35.2 84.992l159.136 15.904zM704 320l-128-128-128 0-128 128 0 128 128 128 128 0 128-128 0-128z"  horiz-adv-x="1024" />

    
    <glyph glyph-name="copy" unicode="&#58915;" d="M832 640l-192 0 0 64-192 192-448 0 0-768 384 0 0-256 640 0 0 576-192 192zM832 549.504l101.504-101.504-101.504 0 0 101.504zM448 805.504l101.504-101.504-101.504 0 0 101.504zM64 832l320 0 0-192 192 0 0-448-512 0 0 640zM960-64l-512 0 0 192 192 0 0 448 128 0 0-192 192 0 0-448z"  horiz-adv-x="1024" />

    
    <glyph glyph-name="corner" unicode="&#58916;" d="M768 640l64 0 0-64-64 0zM640 512l64 0 0-64-64 0zM640 384l64 0 0-64-64 0zM640 256l64 0 0-64-64 0zM512 384l64 0 0-64-64 0zM512 256l64 0 0-64-64 0zM384 256l64 0 0-64-64 0zM768 512l64 0 0-64-64 0zM768 384l64 0 0-64-64 0zM768 256l64 0 0-64-64 0zM768 128l64 0 0-64-64 0zM640 128l64 0 0-64-64 0zM512 128l64 0 0-64-64 0zM384 128l64 0 0-64-64 0zM256 128l64 0 0-64-64 0z"  horiz-adv-x="1024" />

    
    <glyph glyph-name="cut" unicode="&#58917;" d="M890.784 186.848c-45.664 45.568-103.712 69.088-157.952 69.088l-29.12 0-63.904 64 255.616 256.032c63.904 64 63.904 192.032 0 256.032l-383.424-384.064-383.424 384.064c-63.904-64-63.904-192.032 0-256.032l255.616-256.032-63.904-64-29.12 0c-54.208 0-112.288-23.52-157.952-69.088-81.632-81.44-92.64-202.496-24.64-270.336 29.984-29.888 70.272-44.48 112.992-44.48 54.208 0 112.288 23.52 157.952 69.088 53.6 53.472 76.736 124 67.072 185.344l65.376 65.504 65.376-65.504c-9.664-61.344 13.504-131.872 67.072-185.344 45.664-45.568 103.744-69.088 157.952-69.088 42.72 0 83.04 14.592 112.992 44.48 68.032 67.872 56.992 188.896-24.64 270.336zM353.024 50.464c-7.712-17.888-19.008-34.336-33.632-48.928s-31.168-25.92-49.152-33.632c-16.128-6.912-32.96-10.56-48.672-10.56-15.136 0-36.608 3.392-52.864 19.616-16.128 16.096-19.52 37.312-19.52 52.288 0 15.552 3.648 32.224 10.528 48.224 7.712 17.888 19.008 34.336 33.632 48.928s31.168 25.92 49.152 33.632c16.128 6.912 32.96 10.56 48.672 10.56 15.136 0 36.608-3.392 52.864-19.616 16.128-16.096 19.52-37.312 19.52-52.288 0-15.552-3.648-32.224-10.528-48.224zM512 229.408c-49.92 0-90.368 40.544-90.368 90.528s40.448 90.528 90.368 90.528 90.368-40.544 90.368-90.528c0-49.984-40.448-90.528-90.368-90.528zM855.264-23.04c-16.256-16.192-37.696-19.616-52.864-19.616-15.712 0-32.544 3.648-48.672 10.56-17.984 7.712-34.496 19.008-49.152 33.632s-25.92 31.04-33.632 48.928c-6.88 16-10.528 32.672-10.528 48.224 0 14.976 3.392 36.192 19.52 52.288 16.256 16.192 37.696 19.616 52.864 19.616 15.712 0 32.544-3.648 48.672-10.56 17.984-7.712 34.528-19.008 49.152-33.632s25.92-31.04 33.632-48.928c6.88-16 10.528-32.672 10.528-48.224 0-14.976-3.392-36.192-19.52-52.288z"  horiz-adv-x="1024" />

    
    <glyph glyph-name="datetime" unicode="&#58918;" d="M512 704c-212.064 0-384-171.936-384-384s171.936-384 384-384c212.064 0 384 171.936 384 384s-171.936 384-384 384zM715.648 116.352c-54.4-54.4-126.72-84.352-203.648-84.352s-149.248 29.952-203.648 84.352c-54.4 54.4-84.352 126.72-84.352 203.648s29.952 149.248 84.352 203.648c54.4 54.4 126.72 84.352 203.648 84.352s149.248-29.952 203.648-84.352c54.4-54.4 84.352-126.72 84.352-203.648s-29.952-149.248-84.352-203.648zM325.92 692.128l-42.944 85.888c-98.88-49.536-179.456-130.144-228.992-229.024l85.888-42.944c40.256 80.352 105.728 145.824 186.08 186.08zM884.128 506.08l85.888 42.944c-49.536 98.88-130.112 179.488-228.992 229.024l-42.944-85.888c80.352-40.256 145.824-105.728 186.08-186.08zM512 512l-64 0 0-192c0-10.112 4.704-19.104 12.032-24.96l0 0 160-128 39.968 49.984-148 118.4 0 176.608z"  horiz-adv-x="1024" />

    
    <glyph glyph-name="explore" unicode="&#58919;" d="M927.988922 768.001528l-415.995034 0-31.999618 63.999236-351.995798 0-63.999236-127.998472 895.989304 0zM904.341204 192.008404l74.847107 0 44.799465 447.994652-1023.987776 0 63.999236-639.99236 484.058222 0c-104.894748 37.759549-180.09385 138.270349-180.09385 255.996944 0 149.98221 122.014543 271.996753 271.996753 271.996753s271.996753-122.014543 271.996753-271.996753c0-21.663741-2.623969-43.135485-7.647909-63.999236zM1002.996027-17.749092l-198.49363 174.685915c17.439792 28.927655 27.487672 62.81525 27.487672 99.070817 0 106.046734-85.950974 191.997708-191.997708 191.997708s-191.997708-85.950974-191.997708-191.997708 85.950974-191.997708 191.997708-191.997708c36.255567 0 70.143163 10.04788 99.070817 27.487672l174.685915-198.49363c22.975726-26.687681 62.111259-28.127664 87.006961-3.263961l5.503934 5.503934c24.895703 24.895703 23.42372 64.031236-3.263961 87.006961zM639.99236 132.00912c-68.479183 0-123.99852 55.519337-123.99852 123.99852s55.519337 123.99852 123.99852 123.99852 123.99852-55.519337 123.99852-123.99852-55.519337-123.99852-123.99852-123.99852z"  horiz-adv-x="1025" />

    
    <glyph glyph-name="find" unicode="&#58920;" d="M64 896l384 0 0-64-384 0zM576 896l384 0 0-64-384 0zM952 576l-56 0 0 256-256 0 0-256-256 0 0 256-256 0 0-256-56 0c-39.616 0-72-32.384-72-72l0-560c0-39.616 32.384-72 72-72l304 0c39.616 0 72 32.384 72 72l0 376 128 0 0-376c0-39.616 32.384-72 72-72l304 0c39.616 0 72 32.384 72 72l0 560c0 39.616-32.384 72-72 72zM348-64l-248 0c-19.808 0-36 14.4-36 32s16.192 32 36 32l248 0c19.808 0 36-14.4 36-32s-16.192-32-36-32zM544 384l-64 0c-17.6 0-32 14.4-32 32s14.4 32 32 32l64 0c17.6 0 32-14.4 32-32s-14.4-32-32-32zM924-64l-248 0c-19.808 0-36 14.4-36 32s16.192 32 36 32l248 0c19.808 0 36-14.4 36-32s-16.192-32-36-32z"  horiz-adv-x="1024" />

    
    <glyph glyph-name="fullscreen" unicode="&#58921;" d="M1024 895.968001l0-383.988-138.267679 138.267679-211.993375-211.993375-107.484641 107.484641 211.993375 211.993375-138.267679 138.267679zM245.75232 757.700322l211.993375-211.993375-107.484641-107.484641-211.993375 211.993375-138.267679-138.267679 0 383.988 383.988 0zM885.732321 117.720321l138.267679 138.267679 0-383.988-383.988 0 138.267679 138.267679-211.993375 211.993375 107.484641 107.484641zM457.745695 222.261054l-211.993375-211.993375 138.267679-138.267679-383.988 0 0 383.988 138.267679-138.267679 211.993375 211.993375z"  horiz-adv-x="1024" />

    
    <glyph glyph-name="help" unicode="&#58922;" d="M448 192l128 0 0-128-128 0zM704 640c35.36 0 64-28.64 64-64l0-192-192-128-128 0 0 64 192 128 0 64-320 0 0 128 384 0zM512 800c-111.104 0-215.584-43.264-294.144-121.856s-121.856-183.04-121.856-294.144c0-111.104 43.264-215.584 121.856-294.144s183.04-121.856 294.144-121.856c111.104 0 215.584 43.264 294.144 121.856s121.856 183.04 121.856 294.144c0 111.104-43.264 215.584-121.856 294.144s-183.04 121.856-294.144 121.856zM512 896l0 0c282.784 0 512-229.216 512-512s-229.216-512-512-512c-282.784 0-512 229.216-512 512s229.216 512 512 512z"  horiz-adv-x="1024" />

    
    <glyph glyph-name="hr" unicode="&#58923;" d="M0 448l1024 0 0-128-1024 0z"  horiz-adv-x="1024" />

    
    <glyph glyph-name="indent" unicode="&#58924;" d="M0 832l1024 0 0-128-1024 0zM384 640l640 0 0-128-640 0zM384 448l640 0 0-128-640 0zM384 256l640 0 0-128-640 0zM0 64l1024 0 0-128-1024 0zM0 192l0 384 256-192z"  horiz-adv-x="1024" />

    
    <glyph glyph-name="italic" unicode="&#58925;" d="M896 832l0-64-128 0-320-768 128 0 0-64-448 0 0 64 128 0 320 768-128 0 0 64z"  horiz-adv-x="1024" />

    
    <glyph glyph-name="link" unicode="&#58926;" d="M320.032 192c17.6-17.6 47.264-16.736 65.952 1.952l316.128 316.128c18.656 18.656 19.552 48.352 1.952 65.952s-47.264 16.736-65.952-1.952l-316.128-316.128c-18.656-18.656-19.552-48.352-1.952-65.952zM476.928 220.896c4.576-9.056 6.976-19.168 6.976-29.696 0-17.6-6.752-34.048-19.008-46.304l-163.392-163.392c-12.256-12.256-28.704-18.976-46.304-18.976s-34.048 6.752-46.304 18.976l-99.392 99.392c-12.256 12.256-19.008 28.704-19.008 46.304s6.752 34.048 19.008 46.304l163.392 163.392c12.256 12.256 28.704 19.008 46.304 19.008 10.528 0 20.64-2.432 29.696-6.976l65.344 65.344c-27.872 21.408-61.44 32.16-95.04 32.16-40 0-79.968-15.168-110.304-45.504l-163.392-163.392c-60.672-60.672-60.672-159.936 0-220.608l99.392-99.392c30.336-30.336 70.304-45.504 110.304-45.504s79.968 15.168 110.304 45.504l163.392 163.392c55.808 55.808 60.224 144.288 13.344 205.344l-65.344-65.344zM978.528 751.104l-99.392 99.392c-30.336 30.336-70.304 45.504-110.304 45.504s-79.968-15.168-110.304-45.504l-163.392-163.392c-55.808-55.808-60.224-144.288-13.344-205.344l65.344 65.344c-4.544 9.056-6.976 19.168-6.976 29.696 0 17.6 6.752 34.048 18.976 46.304l163.392 163.392c12.256 12.256 28.704 19.008 46.304 19.008s34.048-6.752 46.304-19.008l99.392-99.392c12.256-12.256 18.976-28.704 18.976-46.304s-6.752-34.048-18.976-46.304l-163.392-163.392c-12.256-12.256-28.704-19.008-46.304-19.008-10.528 0-20.64 2.432-29.696 6.976l-65.344-65.344c27.872-21.408 61.44-32.16 95.04-32.16 40 0 79.968 15.168 110.304 45.504l163.392 163.392c60.672 60.672 60.672 159.936 0 220.608z"  horiz-adv-x="1025" />

    
    <glyph glyph-name="ltr" unicode="&#58927;" d="M448 832l512 0 0-128-128 0 0-768-128 0 0 768-128 0 0-768-128 0 0 448c-123.712 0-224 100.288-224 224s100.288 224 224 224zM64 448l256-224-256-224z"  horiz-adv-x="1024" />

    
    <glyph glyph-name="nbsp" unicode="&#58928;" d="M448 320l-192 0 0 128 192 0 0 192 128 0 0-192 192 0 0-128-192 0 0-192-128 0zM1024 256l0-384-1024 0 0 384 128 0 0-256 768 0 0 256z"  horiz-adv-x="1024" />

    
    <glyph glyph-name="new" unicode="&#58929;" d="M903.424 696.576l-142.88 142.848c-31.104 31.104-92.576 56.576-136.576 56.576l-480 0c-44 0-80-36-80-80l0-864c0-44 36-80 80-80l736 0c44 0 80 36 80 80l0 608c0 44-25.472 105.472-56.576 136.576zM858.176 651.328c3.136-3.136 6.24-6.976 9.28-11.328l-163.456 0 0 163.456c4.352-3.04 8.192-6.144 11.328-9.28l142.88-142.848zM896-48c0-8.672-7.328-16-16-16l-736 0c-8.672 0-16 7.328-16 16l0 864c0 8.672 7.328 16 16 16l480 0c4.832 0 10.24-0.608 16-1.696l0-254.304 254.304 0c1.088-5.76 1.696-11.168 1.696-16l0-608z"  horiz-adv-x="1024" />

    
    <glyph glyph-name="ok" unicode="&#58930;" d="M128 352l288-288 480 480-128 128-352-352-160 160z"  horiz-adv-x="1024" />

    
    <glyph glyph-name="orderedlist" unicode="&#58931;" d="M384 64l640 0 0-128-640 0zM384 448l640 0 0-128-640 0zM384 832l640 0 0-128-640 0zM192 896l0-256-64 0 0 192-64 0 0 64zM128 369.984l0-50.016 128 0 0-64-192 0 0 146.016 128 60 0 50.016-128 0 0 64 192 0 0-146.016zM256 192l0-320-192 0 0 64 128 0 0 64-128 0 0 64 128 0 0 64-128 0 0 64z"  horiz-adv-x="1024" />

    
    <glyph glyph-name="outdent" unicode="&#58932;" d="M0 832l1024 0 0-128-1024 0zM384 640l640 0 0-128-640 0zM384 448l640 0 0-128-640 0zM384 256l640 0 0-128-640 0zM0 64l1024 0 0-128-1024 0zM256 576l0-384-256 192z"  horiz-adv-x="1024" />

    
    <glyph glyph-name="pagebreak" unicode="&#58933;" d="M0 384l128 0 0-64-128 0zM192 384l192 0 0-64-192 0zM448 384l128 0 0-64-128 0zM640 384l192 0 0-64-192 0zM896 384l128 0 0-64-128 0zM880 896l16-448-768 0 16 448 32 0 16-384 640 0 16 384zM144-128l-16 384 768 0-16-384-32 0-16 320-640 0-16-320z"  horiz-adv-x="1024" />

    
    <glyph glyph-name="paragraph" unicode="&#58934;" d="M384 832l512 0 0-128-128 0 0-768-128 0 0 768-128 0 0-768-128 0 0 448c-123.712 0-224 100.288-224 224s100.288 224 224 224z"  horiz-adv-x="1024" />

    
    <glyph glyph-name="paste" unicode="&#58935;" d="M832 576l0 160c0 17.6-14.4 32-32 32l-224 0 0 64c0 35.2-28.8 64-64 64l-128 0c-35.2 0-64-28.8-64-64l0-64-224 0c-17.6 0-32-14.4-32-32l0-640c0-17.6 14.4-32 32-32l288 0 0-192 448 0 192 192 0 512-192 0zM384 831.872c0.032 0.032 0.064 0.064 0.128 0.128l127.776 0c0.032-0.032 0.096-0.064 0.128-0.128l0-63.872-128 0 0 63.872zM192 640l0 64 512 0 0-64-512 0zM832-37.504l0 101.504 101.504 0-101.504-101.504zM960 128l-192 0 0-192-320 0 0 576 512 0 0-384z"  horiz-adv-x="1024" />

    
    <glyph glyph-name="pasteastext" unicode="&#58936;" d="M512 384l0-128 32 0 32 64 64 0 0-256-48 0 0-64 224 0 0 64-48 0 0 256 64 0 32-64 32 0 0 128zM832 576l0 160c0 17.6-14.4 32-32 32l-224 0 0 64c0 35.2-28.8 64-64 64l-128 0c-35.2 0-64-28.8-64-64l0-64-224 0c-17.6 0-32-14.4-32-32l0-640c0-17.6 14.4-32 32-32l288 0 0-192 640 0 0 704-192 0zM384 831.872c0.032 0.032 0.064 0.064 0.128 0.128l127.776 0c0.032-0.032 0.096-0.064 0.128-0.128l0-63.872-128 0 0 63.872zM192 640l0 64 512 0 0-64-512 0zM960-64l-512 0 0 576 512 0 0-576z"  horiz-adv-x="1024" />

    
    <glyph glyph-name="preview" unicode="&#58937;" d="M512 576c-209.376 0-395.232-100.544-512-256 116.768-155.456 302.624-256 512-256s395.232 100.544 512 256c-116.768 155.456-302.624 256-512 256zM448 448c35.36 0 64-28.64 64-64s-28.64-64-64-64-64 28.64-64 64 28.64 64 64 64zM773.6 190.688c-39.648-20.256-81.664-35.872-124.832-46.368-44.48-10.848-90.496-16.32-136.768-16.32s-92.288 5.504-136.768 16.32c-43.2 10.528-85.184 26.112-124.832 46.368-63.008 32.192-120.224 76.416-167.648 129.312 47.424 52.896 104.608 97.088 167.648 129.312 32.352 16.512 66.24 29.952 101.088 40.032-19.872-30.24-31.456-66.432-31.456-105.344 0-106.048 85.952-192 192-192s192 85.952 192 192c0 38.912-11.584 75.104-31.456 105.344 34.848-10.112 68.736-23.52 101.088-40.032 63.008-32.192 120.224-76.416 167.648-129.312-47.424-52.896-104.608-97.088-167.648-129.312zM860.928 652.288c-108.736 55.552-226.112 83.712-348.928 83.712s-240.192-28.16-348.928-83.712c-58.784-30.016-113.728-67.904-163.072-112.064l0-109.216c55.328 58.56 120.704 107.744 192.192 144.288 99.616 50.912 207.232 76.704 319.808 76.704s220.192-25.824 319.808-76.704c71.488-36.544 136.864-85.728 192.192-144.288l0 109.216c-49.344 44.16-104.32 82.048-163.072 112.064z"  horiz-adv-x="1024" />

    
    <glyph glyph-name="print" unicode="&#58938;" d="M256 832l512 0 0-128-512 0zM960 640l-896 0c-35.2 0-64-28.8-64-64l0-320c0-35.2 28.8-64 64-64l192 0 0-256 512 0 0 256 192 0c35.2 0 64 28.8 64 64l0 320c0 35.2-28.8 64-64 64zM704 0l-384 0 0 320 384 0 0-320zM974.4 544c0-25.632-20.768-46.4-46.4-46.4s-46.4 20.768-46.4 46.4 20.768 46.4 46.4 46.4c25.632 0 46.4-20.768 46.4-46.4z"  horiz-adv-x="1024" />

    
    <glyph glyph-name="redo" unicode="&#58939;" d="M576 647.616l0 248.384 384-384-384-384 0 253.824c-446.752 10.496-427.584-303.776-313.856-509.824-280.704 303.424-221.088 789.568 313.856 775.616z"  horiz-adv-x="1024" />

    
    <glyph glyph-name="rtl" unicode="&#58940;" d="M256 832l512 0 0-128-128 0 0-768-128 0 0 768-128 0 0-768-128 0 0 448c-123.712 0-224 100.288-224 224s100.288 224 224 224zM960 0l-256 224 256 224z"  horiz-adv-x="1024" />

    
    <glyph glyph-name="save" unicode="&#58941;" d="M896 896l-896 0 0-1024 1024 0 0 896-128 128zM512 768l128 0 0-256-128 0 0 256zM896 0l-768 0 0 768 64 0 0-320 576 0 0 320 74.976 0 53.024-53.024 0-714.976z"  horiz-adv-x="1024" />

    
    <glyph glyph-name="smiley" unicode="&#58942;" d="M512 896c-282.784 0-512-229.216-512-512s229.216-512 512-512c282.784 0 512 229.216 512 512s-229.216 512-512 512zM512-48c-238.592 0-432 193.408-432 432s193.408 432 432 432c238.592 0 432-193.408 432-432s-193.408-432-432-432zM384 576c0-35.36-28.64-64-64-64s-64 28.64-64 64 28.64 64 64 64 64-28.64 64-64zM768 576c0-35.36-28.64-64-64-64s-64 28.64-64 64 28.64 64 64 64 64-28.64 64-64zM512 244c141.088 0 262.688 57.536 318.464 123.2-20.864-171.232-156.288-303.2-318.464-303.2-162.112 0-297.504 132.032-318.432 303.168 55.776-65.632 177.376-123.168 318.432-123.168z"  horiz-adv-x="1024" />

    
    <glyph glyph-name="specialchar" unicode="&#58943;" d="M704 0l256 0 64 128 0-256-384 0 0 214.208c131.104 56.48 224 197.152 224 361.792 0 214.432-157.6 382.272-352 382.272s-352-167.84-352-382.272c0-164.608 92.896-305.312 224-361.792l0-214.208-384 0 0 256 64-128 256 0 0 32.576c-187.616 66.464-320 227.392-320 415.424 0 247.424 229.216 448 512 448s512-200.576 512-448c0-188-132.384-348.96-320-415.424l0-32.576z"  horiz-adv-x="1024" />

    
    <glyph glyph-name="spellcheck" unicode="&#58944;" d="M128 640l128 0 0-192 64 0 0 384c0 35.2-28.8 64-64 64l-128 0c-35.2 0-64-28.8-64-64l0-384 64 0 0 192zM128 832l128 0 0-128-128 0 0 128zM960 832l0 64-192 0c-35.2 0-64-28.8-64-64l0-320c0-35.2 28.8-64 64-64l192 0 0 64-192 0 0 320 192 0zM640 736l0 96c0 35.2-28.8 64-64 64l-192 0 0-448 192 0c35.2 0 64 28.8 64 64l0 96c0 35.2-8.8 64-44 64 35.2 0 44 28.8 44 64zM576 512l-128 0 0 128 128 0 0-128zM576 704l-128 0 0 128 128 0 0-128zM832 320l-416-448-224 288 82.016 70.016 142.016-148 352 302.016z"  horiz-adv-x="1024" />

    
    <glyph glyph-name="strike" unicode="&#58945;" d="M731.424 378.976c63.904-47.936 100.576-116.096 100.576-186.976s-36.672-139.04-100.576-186.976c-59.36-44.512-137.28-69.024-219.424-69.024s-160.064 24.512-219.424 69.024c-63.936 47.936-100.576 116.096-100.576 186.976l128 0c0-69.376 87.936-128 192-128s192 58.624 192 128c0 69.376-87.936 128-192 128-82.144 0-160.064 24.512-219.424 69.024-63.936 47.936-100.576 116.096-100.576 186.976s36.672 139.04 100.576 186.976c59.36 44.512 137.28 69.024 219.424 69.024s160.064-24.512 219.424-69.024c63.904-47.936 100.576-116.096 100.576-186.976l-128 0c0 69.376-87.936 128-192 128s-192-58.624-192-128c0-69.376 87.936-128 192-128 82.144 0 160.064-24.512 219.424-69.024zM0 384l1024 0 0-64-1024 0z"  horiz-adv-x="1024" />

    
    <glyph glyph-name="sub" unicode="&#58946;" d="M767.992-13.987563l0-50.014437 127.996 0 0-63.998-191.994 0 0 146.011437 127.996 59.998125 0 50.014437-127.996 0 0 63.998 191.994 0 0-146.011437zM675.994875 640.008l-135.99575 0-187.994125-187.994125-187.994125 187.994125-135.99575 0 255.992-255.992-255.992-255.992 135.99575 0 187.994125 187.994125 187.994125-187.994125 135.99575 0-255.992 255.992z"  horiz-adv-x="1024" />

    
    <glyph glyph-name="sup" unicode="&#58947;" d="M768 689.984l0-50.016 128 0 0-64-192 0 0 146.016 128 60 0 50.016-128 0 0 64 192 0 0-146.016zM676 640l-136 0-188-188-188 188-136 0 256-256-256-256 136 0 188 188 188-188 136 0-256 256z"  horiz-adv-x="1024" />

    
    <glyph glyph-name="table" unicode="&#58948;" d="M0 832l0-896 1024 0 0 896-1024 0zM384 256l0 192 256 0 0-192-256 0zM640 192l0-192-256 0 0 192 256 0zM640 704l0-192-256 0 0 192 256 0zM320 704l0-192-256 0 0 192 256 0zM64 448l256 0 0-192-256 0 0 192zM704 448l256 0 0-192-256 0 0 192zM704 512l0 192 256 0 0-192-256 0zM64 192l256 0 0-192-256 0 0 192zM704 0l0 192 256 0 0-192-256 0z"  horiz-adv-x="1024" />

    
    <glyph glyph-name="template" unicode="&#58949;" d="M384 704l128 0 0-64-128 0zM576 704l128 0 0-64-128 0zM896 704l0-256-192 0 0 64 128 0 0 128-64 0 0 64zM320 512l128 0 0-64-128 0zM512 512l128 0 0-64-128 0zM192 640l0-128 64 0 0-64-128 0 0 256 192 0 0-64zM384 320l128 0 0-64-128 0zM576 320l128 0 0-64-128 0zM896 320l0-256-192 0 0 64 128 0 0 128-64 0 0 64zM320 128l128 0 0-64-128 0zM512 128l128 0 0-64-128 0zM192 256l0-128 64 0 0-64-128 0 0 256 192 0 0-64zM960 832l-896 0 0-896 896 0 0 896zM1024 896l0 0 0-1024-1024 0 0 1024 1024 0z"  horiz-adv-x="1024" />

    
    <glyph glyph-name="underline" unicode="&#58950;" d="M704 832l128 0 0-416c0-159.072-143.264-288-320-288s-320 128.928-320 288l0 416 128 0 0-416c0-40.16 18.24-78.688 51.36-108.512 36.896-33.216 86.848-51.488 140.64-51.488s103.744 18.304 140.64 51.488c33.12 29.792 51.36 68.352 51.36 108.512l0 416zM192 64l640 0 0-128-640 0z"  horiz-adv-x="1024" />

    
    <glyph glyph-name="undo" unicode="&#58951;" d="M761.856-128c113.728 206.048 132.896 520.32-313.856 509.824l0-253.824-384 384 384 384 0-248.384c534.976 13.952 594.56-472.224 313.856-775.616z"  horiz-adv-x="1024" />

    
    <glyph glyph-name="unlink" unicode="&#58952;" d="M476.928 220.896c4.576-9.056 6.976-19.168 6.976-29.696 0-17.6-6.752-34.048-19.008-46.304l-163.392-163.392c-12.256-12.256-28.704-18.976-46.304-18.976s-34.048 6.752-46.304 18.976l-99.392 99.392c-12.256 12.256-19.008 28.704-19.008 46.304s6.752 34.048 19.008 46.304l163.392 163.392c12.256 12.256 28.704 18.976 46.304 18.976 10.528 0 20.64-2.432 29.696-6.976l65.344 65.344c-27.872 21.408-61.44 32.16-95.04 32.16-40 0-79.968-15.168-110.304-45.504l-163.392-163.392c-60.672-60.672-60.672-159.936 0-220.608l99.392-99.392c30.336-30.336 70.304-45.504 110.304-45.504s79.968 15.168 110.304 45.504l163.392 163.392c55.808 55.808 60.224 144.288 13.344 205.344l-65.344-65.344zM978.528 751.104l-99.392 99.392c-30.336 30.336-70.304 45.504-110.304 45.504s-79.968-15.168-110.304-45.504l-163.392-163.392c-55.808-55.808-60.224-144.288-13.344-205.344l65.344 65.344c-4.544 9.056-6.976 19.168-6.976 29.696 0 17.6 6.752 34.048 18.976 46.304l163.392 163.392c12.256 12.256 28.704 19.008 46.304 19.008s34.048-6.752 46.304-19.008l99.392-99.392c12.256-12.256 18.976-28.704 18.976-46.304s-6.752-34.048-18.976-46.304l-163.392-163.392c-12.256-12.256-28.704-19.008-46.304-19.008-10.528 0-20.64 2.432-29.696 6.976l-65.344-65.344c27.872-21.408 61.44-32.16 95.04-32.16 40 0 79.968 15.168 110.304 45.504l163.392 163.392c60.672 60.672 60.672 159.936 0 220.608zM233.408 617.376l-192 192 45.248 45.248 192-192zM384.032 896l64 0 0-192-64 0zM0.032 512l192 0 0-64-192 0zM790.656 150.624l192-192-45.248-45.248-192 192zM576.032 64l64 0 0-192-64 0zM832.032 320l192 0 0-64-192 0z"  horiz-adv-x="1025" />

    
    <glyph glyph-name="unorderedlist" unicode="&#58953;" d="M384 832l640 0 0-128-640 0 0 128zM384 448l640 0 0-128-640 0 0 128zM384 64l640 0 0-128-640 0 0 128zM0 768c0 70.688 57.312 128 128 128s128-57.312 128-128c0-70.688-57.312-128-128-128s-128 57.312-128 128zM0 384c0 70.688 57.312 128 128 128s128-57.312 128-128c0-70.688-57.312-128-128-128s-128 57.312-128 128zM0 0c0 70.688 57.312 128 128 128s128-57.312 128-128c0-70.688-57.312-128-128-128s-128 57.312-128 128z"  horiz-adv-x="1024" />

    
    <glyph glyph-name="video" unicode="&#58954;" d="M0 768l0-768 1024 0 0 768-1024 0zM192 64l-128 0 0 128 128 0 0-128zM192 320l-128 0 0 128 128 0 0-128zM192 576l-128 0 0 128 128 0 0-128zM768 64l-512 0 0 640 512 0 0-640zM960 64l-128 0 0 128 128 0 0-128zM960 320l-128 0 0 128 128 0 0-128zM960 576l-128 0 0 128 128 0 0-128zM384 576l0-384 256 192z"  horiz-adv-x="1024" />

    
    <glyph glyph-name="mark" unicode="&#58955;" d="M136 760 888 760 888 8 136 8 136 760M304 40 368 248 656 248 720 40 840 40 632 728 392 728 184 40 304 40M472 592 552 592 616 384 408 384 472 592Z"  horiz-adv-x="1024" />

    
    <glyph glyph-name="image" unicode="&#58956;" d="M0 756l0-768 1024 0 0 768-1024 0zM944 68l-864 0 0 608 864 0 0-608zM704 516c0-53.024 42.976-96 96-96s96 42.976 96 96c0 53.024-42.976 96-96 96-53.024 0-96-42.976-96-96M888 124l-192 288-128-96-240 304-192-496 752 0z"  horiz-adv-x="1024" />

    
    <glyph glyph-name="750bianjiqi_fujian" unicode="&#58962;" d="M867.203 268.824c13.6 13.703 13.578 35.832-0.088 49.496-13.663 13.663-35.793 13.687-49.494 0.086l-0.434 0.432L553.45 55.1c-82.15-65.542-202.545-60.341-278.576 15.686-76.03 76.032-81.238 196.435-15.696 278.588l384.151 394.236c51.629 33.346 121.425 27.451 166.606-17.73 45.175-45.177 51.068-114.969 17.72-166.597L484.156 214.886c-1.808-2.838-3.921-5.537-6.397-8.013-18.323-18.324-48.14-18.327-66.467 0-18.326 18.326-18.328 48.144-0.003 66.47 2.476 2.476 5.177 4.588 8.014 6.396L689.78 552.48a34.938 34.938 0 0 1 3.132 2.75c13.695 13.695 13.695 35.897 0 49.59-13.691 13.693-35.894 13.693-49.589 0-0.401-0.403-0.752-0.836-1.133-1.253l-0.061 0.06L368.773 330.27c-2.579-2.173-5.104-4.445-7.535-6.873-45.923-45.923-45.923-120.648 0.002-166.574 45.924-45.923 120.648-45.923 166.572 0 2.43 2.428 4.701 4.956 6.873 7.537L878.43 508.51c60.521 79.93 54.404 194.573-18.443 267.422-72.857 72.855-187.504 78.973-267.434 18.453L208.874 399.68c-93.012-109.984-87.705-275.29 15.948-378.945 102.603-102.601 265.612-108.82 375.577-18.71l0.275-0.31 266.818 266.817-0.29 0.29z"  horiz-adv-x="1024" />

    
    <glyph glyph-name="756bianjiqi_moban" unicode="&#58963;" d="M419.05-35.123H218.556c-83.665 0-151.725 59.52-151.725 132.688V605.273c0 73.16 68.06 132.68 151.725 132.68H419.05c83.666 0 151.725-59.52 151.725-132.68v-507.708c0-73.168-68.06-132.688-151.725-132.688zM218.556 651.253c-35.243 0-65.025-21.06-65.025-45.98v-507.708c0-24.927 29.782-45.987 65.025-45.987H419.05c35.244 0 65.025 21.06 65.025 45.987V605.273c0 24.926-29.781 45.98-65.025 45.98H218.556zM915.77 660.768a46.543 46.543 0 0 0-46.537-46.543H657.05a46.529 46.529 0 0 0-46.536 46.543 46.543 46.543 0 0 0 46.536 46.544h212.177a46.543 46.543 0 0 0 46.543-46.544z m0-172.966a46.543 46.543 0 0 0-46.537-46.544H657.05a46.529 46.529 0 0 0-46.536 46.544 46.543 46.543 0 0 0 46.536 46.543h212.177a46.543 46.543 0 0 0 46.543-46.543z m0-172.96a46.529 46.529 0 0 0-46.537-46.543H657.05a46.536 46.536 0 1 0 0 93.08h212.177a46.529 46.529 0 0 0 46.543-46.537zM874.825-27.898H665.062c-29.08 0-52.743 23.655-52.743 52.743V157.763c0 29.081 23.655 52.743 52.743 52.743h209.763c29.081 0 52.743-23.655 52.743-52.743v-132.918c0-29.088-23.662-52.743-52.743-52.743z m-190.256 72.25h170.749v93.904H684.569v-93.903z"  horiz-adv-x="1024" />

    
    <glyph glyph-name="755bianjiqi_fenye" unicode="&#58964;" d="M132.98 386.747h94.916v-47.458h-94.917v47.458z m142.375 0H417.73v-47.458H275.355v47.458z m189.834 0h94.916v-47.458H465.19v47.458z m142.376 0H749.94v-47.458H607.565v47.458z m189.833 0h94.916v-47.458h-94.916v47.458z m-0.579 379.458l0.579-331.999H227.896l-0.888 331.999 48.266 0.17 0.08-284.71H749.94l-0.193 284.54h47.073z m-569.725-758.61l0.802 284.237 568.923 0.071v-284.82h-47.243l0.363 237.289H275.355l0.09-236.778h-48.351z"  horiz-adv-x="1024" />

    
    <glyph glyph-name="760bianjiqi_shijian" unicode="&#58965;" d="M517.333 853.333c-122.517 0-237.696-47.722-324.309-134.357-86.635-86.613-134.357-201.813-134.357-324.31s47.722-237.695 134.357-324.309C279.637-16.277 394.816-64 517.334-64s237.695 47.723 324.33 134.357c86.635 86.614 134.357 201.792 134.357 324.31S928.3 632.363 841.664 718.976C755.029 805.611 639.851 853.333 517.334 853.333zM801.11 110.891c-75.797-75.819-176.576-117.568-283.776-117.568-107.2 0-207.978 41.749-283.776 117.568-75.818 75.797-117.546 176.576-117.546 283.776s41.749 207.978 117.568 283.776C309.376 754.26 410.155 796.01 517.355 796.01c107.2 0 207.978-41.75 283.776-117.568 75.818-75.798 117.568-176.576 117.568-283.776s-41.771-207.979-117.59-283.776zM524.672 349.568V645.995c0 15.829-12.843 28.672-28.672 28.672s-28.672-12.843-28.672-28.672v-315.328c0-11.456 6.827-21.846 17.387-26.347M746.667 330.667c0-17.664-14.336-32-32-32H501.333c-17.664 0-32 14.336-32 32s14.336 32 32 32h213.334c17.664 0 32-14.336 32-32z"  horiz-adv-x="1024" />

    
    <glyph glyph-name="754bianjiqi_daima" unicode="&#58966;" d="M984.752 363.28L790.432 169.2c-12-11.968-31.456-11.968-43.456 0-11.984 11.984-11.984 31.392 0 43.36l172.64 172.4-172.64 172.384c-11.984 11.984-11.984 31.392 0 43.36 12 11.984 31.456 11.984 43.456 0l194.32-194.064c12-11.984 12-31.392 0-43.36zM347.776-15.568c-8.832-15.424-28.4-20.72-43.712-11.808-15.312 8.896-20.544 28.624-11.712 44.048l384 766.896c8.832 15.44 28.4 20.72 43.712 11.808 15.312-8.896 20.544-28.624 11.712-44.048l-384-766.896zM277.152 169.2c-12-11.968-31.456-11.968-43.456 0L39.36 363.28c-11.984 11.968-11.984 31.376 0 43.36l194.336 194.064c12 11.984 31.456 11.984 43.456 0 11.984-11.968 11.984-31.376 0-43.36L104.528 384.96l172.624-172.4c11.984-11.968 11.984-31.376 0-43.36z"  horiz-adv-x="1024" />

    
    <glyph glyph-name="759bianjiqi_riqi" unicode="&#58967;" d="M558.532 430.562h-93.094v-93.094h93.094v93.094z m0-162.906h-93.094v-93.094h93.094v93.094z m372.374 535.25h-93.093V872.72C837.813 885.58 827.392 896 814.532 896S791.28 885.58 791.28 872.72v-69.814H232.719V872.72C232.72 885.58 222.3 896 209.44 896c-12.861 0-23.252-10.42-23.252-23.28v-69.814H93.094C41.683 802.906 0 761.224 0 709.813V-34.906C0-86.317 41.683-128 93.094-128h837.812c51.411 0 93.094 41.683 93.094 93.094V709.813c0 51.41-41.683 93.093-93.094 93.093z m46.532-837.812c0-25.69-20.841-46.532-46.532-46.532H93.094c-25.72 0-46.562 20.841-46.562 46.532V523.625h930.906v-558.531z m0 605.093H46.532V709.813c0 25.72 20.841 46.562 46.562 46.562h93.093v-69.813c0-12.86 10.39-23.281 23.251-23.281 12.86 0 23.281 10.42 23.281 23.28v69.814h558.562v-69.813c0-12.86 10.39-23.281 23.25-23.281 12.861 0 23.282 10.42 23.282 23.28v69.814h93.093c25.69 0 46.532-20.842 46.532-46.562v-139.626zM791.281 267.656h-93.094v-93.094h93.094v93.094z m0 162.906h-93.094v-93.094h93.094v93.094zM558.53 104.719h-93.093v-93.094h93.094V104.72z m-232.718 0h-93.094v-93.094h93.094V104.72z m0 325.843h-93.094v-93.094h93.094v93.094z m0-162.906h-93.094v-93.094h93.094v93.094z"  horiz-adv-x="1024" />

    
    <glyph glyph-name="762bianjiqi_jietu" unicode="&#58968;" d="M972.8 59.733h-34.133V742.4c0 18.842-15.292 34.133-34.134 34.133H153.6V861.867C153.6 880.708 138.308 896 119.467 896S85.333 880.708 85.333 861.867v-85.334H51.2c-18.842 0-34.133-15.291-34.133-34.133s15.291-34.133 34.133-34.133h34.133V25.6c0-18.842 15.292-34.133 34.134-34.133H870.4v-85.334c0-18.841 15.292-34.133 34.133-34.133s34.134 15.292 34.134 34.133v85.334H972.8c18.842 0 34.133 15.291 34.133 34.133s-15.291 34.133-34.133 34.133z m-819.2 0V708.267h716.8v-648.534H153.6zM273.067 537.6a4 4 0 1 1 136.533 0 4 4 0 1 1-136.533 0zM818.193 169.694L716.851 440.405c-2.526 6.725-8.294 11.145-15.599 11.93-7.287 0.785-13.892-2.321-17.869-8.346L568.747 268.971c-5.223-7.953-15.531-10.752-24.2-6.554l-196.353 95.386c-8.653 4.198-18.978 1.416-24.183-6.537l-116.6-177.988c-3.806-5.82-4.045-12.647-0.648-18.705s9.438-9.506 16.503-9.506H800.58c6.332 0 11.742 2.747 15.377 7.833 3.618 5.086 4.404 10.991 2.236 16.794z"  horiz-adv-x="1024" />

    
    <glyph glyph-name="773bianjiqi_dayin" unicode="&#58969;" d="M760.902 497.88h55.821v-55.81h-55.821v55.81zM565.553 497.88H705.09v-55.81H565.553v55.81zM370.193 107.172H649.27v-55.811H370.193v55.811zM370.193 246.71H649.27v-55.81H370.193v55.81zM202.75 190.9h55.81V302.531h-55.81v55.81h613.973v-55.81h-55.821v-111.633h55.821c61.02 0 83.717 22.697 83.717 83.717V497.88c0 46.171-37.555 83.727-83.717 83.727H202.75c-46.172 0-83.697-37.556-83.697-83.727v-223.265c0-45.097 63.804-83.717 83.697-83.717zM956.26 497.88v-223.264c0-115.337-75.878-139.538-139.538-139.538h-55.821v-195.35H258.56v195.35H202.75c-46.52 0-139.528 60.313-139.528 139.538V497.88c0 76.942 62.585 139.538 139.528 139.538h83.727V832.779h446.52v-195.36h83.726c76.932 0 139.538-62.596 139.538-139.538z m-251.17-502.34V302.532H314.382V-4.46h390.709z m-27.906 641.879V776.957H342.288v-139.538h334.897z"  horiz-adv-x="1024" />

    
    <glyph glyph-name="774bianjiqi_yulan" unicode="&#58970;" d="M633.01097-81.863761v0.465H139.658091c-24.667994 0-47.939988 9.773998-65.625984 27.459993-17.685996 17.686996-27.459993 40.95799-27.459993 65.625984V756.372034c0 24.666994 9.773998 47.938988 27.459993 65.624984s40.95799 27.459993 65.625984 27.459993h605.055852c24.667994 0 47.939988-9.773998 65.624984-27.459993 17.686996-17.685996 27.459993-40.95799 27.459993-65.624984v-209.442949c0-12.799997 10.472997-23.270994 23.271995-23.270994 12.799997 0 23.270994 10.471997 23.270994 23.269994V756.373034C884.341909 833.167015 821.509924 896 744.713943 896H139.658091C62.86211 896 0.029125 833.167015 0.029125 756.372034v-744.684818c0-76.795981 62.832985-139.628966 139.628966-139.628966H633.00997v0.466c10.704997 2.093999 18.616995 11.634997 18.616996 22.805994s-7.911998 20.710995-18.616996 22.805995zM721.442949 703.778047c0 12.799997-10.471997 23.271994-23.271994 23.271994h-511.969875c-12.799997 0-23.271994-10.472997-23.271995-23.271994 0-12.799997 10.471997-23.270994 23.270995-23.270994h511.970875c12.799997 0 23.271994 10.471997 23.271994 23.270994zM186.20008 38.681209H325.830045c12.798997 0 23.270994 10.472997 23.270995 23.271995s-10.471997 23.270994-23.270995 23.270994H186.20008c-12.798997 0-23.270994-10.471997-23.270995-23.270994S173.400083 38.680209 186.20008 38.680209zM186.20008 359.594131h93.085977c12.799997 0 23.270994 10.471997 23.270994 23.271994s-10.471997 23.269994-23.270994 23.269995H186.20008c-12.798997 0-23.270994-10.470997-23.270995-23.269995s10.471997-23.271994 23.270995-23.271994zM1017.221877-88.14776L845.013919 84.061198c39.09599 46.541989 62.599985 106.582974 62.599984 171.974958 0 147.773964-119.847971 267.621935-267.620934 267.621935S372.372034 403.81012 372.372034 256.036156s119.846971-267.619935 267.619935-267.619934c65.625984 0 125.433969 23.502994 171.975958 62.599984l172.208958-172.209958c9.075998-9.074998 23.969994-9.074998 32.811992 0s9.309998 23.969994 0.233 33.045992z m-377.229908 123.10597c-121.94097 0-221.077946 99.135976-221.077946 221.077946s99.136976 221.078946 221.078946 221.078946S861.069915 377.979126 861.069915 256.036156s-99.135976-221.077946-221.077946-221.077946z"  horiz-adv-x="1024" />

    
    <glyph glyph-name="701bianjiqi_chexiao" unicode="&#58971;" d="M761.856-128C875.584 78.08 896 392.32 448 381.824V128L64 512 448 896v-248.384c576 13.952 594.56-472.192 313.856-775.616z"  horiz-adv-x="1024" />

    
    <glyph glyph-name="702bianjiqi_zhongzuo" unicode="&#58972;" d="M892.541 540.694L579.154 249.692V428.771c-92.01 0-313.388 13.727-313.388-223.849 0-124.428 82.523-244.616 201.464-268.618-191.124 25.576-335.773 185.025-335.773 380.543 0 363.184 384.324 358.157 447.697 358.157V831.696l313.387-291.002z"  horiz-adv-x="1024" />

    
    <glyph glyph-name="777bianjiqi_bangzhu" unicode="&#58973;" d="M512.697 832.555c-247.538 0-448.208-200.65-448.208-448.208 0-247.52 200.67-448.208 448.208-448.208s448.208 200.688 448.208 448.208c0 247.558-200.669 448.208-448.208 448.208z m-1.709-671.693c-25.55 0-46.26 21.301-46.26 47.563s20.71 47.563 46.26 47.563c25.562 0 46.27-21.3 46.27-47.563s-20.71-47.563-46.27-47.563z m129.224 298.916c-6.384-12.292-13.97-22.87-22.752-31.77-8.78-8.936-24.557-23.928-47.299-45.047-6.291-5.945-11.334-11.16-15.12-15.684-3.792-4.487-6.619-8.608-8.462-12.366a60.048 60.048 0 0 1-4.303-11.197c-1.013-3.756-2.544-10.322-4.58-19.733-3.517-19.95-14.524-29.91-33.026-29.91-9.612 0-17.709 3.248-24.266 9.775-6.574 6.53-9.848 16.195-9.848 29.072 0 16.086 2.398 30.055 7.204 41.836 4.814 11.819 11.188 22.178 19.15 31.077 7.96 8.9 18.684 19.515 32.18 31.807 11.835 10.724 20.398 18.821 25.66 24.293a81.893 81.893 0 0 1 13.324 18.273c3.61 6.712 5.415 14.007 5.415 21.849 0 15.355-5.509 28.305-16.504 38.845-11.017 10.542-25.205 15.831-42.594 15.831-20.355 0-35.336-5.325-44.948-15.976-9.62-10.65-17.754-26.298-24.42-47.053-6.291-21.666-18.22-32.499-35.791-32.499-10.35 0-19.103 3.794-26.217 11.38-7.121 7.587-10.678 15.794-10.678 24.584 0 18.238 5.635 36.695 16.915 55.406 11.28 18.676 27.757 34.177 49.396 46.433 21.63 12.293 46.889 18.42 75.742 18.42 26.826 0 50.49-5.143 71.026-15.392 20.534-10.25 36.392-24.22 47.58-41.837 11.19-17.654 16.789-36.84 16.789-57.558 0-16.305-3.191-30.604-9.573-42.86z"  horiz-adv-x="1024" />

    
    <glyph glyph-name="708bianjiqi_shangbiao" unicode="&#58974;" d="M783.97 542.157v-44.597h114.167v-57.083h-171.25V570.7l114.167 53.515v44.597H726.887v57.083h171.251v-130.223l-114.167-53.515z m-82.058-44.596H580.61L412.926 329.877 245.185 497.561H123.883l228.335-228.335L123.883 40.89h121.303l167.741 167.683L580.61 40.89h121.302L473.576 269.226l228.336 228.335z"  horiz-adv-x="1024" />

    
    <glyph glyph-name="713bianjiqi_yinyong" unicode="&#58975;" d="M832 385.792H704c0 106.048 85.952 192 192 192 35.328 0 64 28.608 64 64 0 35.328-28.672 64-64 64-176.704 0-320-143.296-320-320v-256c0-70.72 57.344-128 128-128h128c70.656 0 128 57.28 128 128v128c0 70.72-57.344 128-128 128z m-448 192c35.328 0 64 28.608 64 64 0 35.328-28.672 64-64 64-176.704 0-320-143.296-320-320v-256c0-70.72 57.28-128 128-128h128c70.72 0 128 57.28 128 128v128c0 70.72-57.28 128-128 128H192c0 106.048 85.952 192 192 192z"  horiz-adv-x="1024" />

    
    <glyph glyph-name="715bianjiqi_niantie" unicode="&#58976;" d="M631.156 674.846h-95.679v47.84c0 26.314-21.535 47.84-47.84 47.84H391.96c-26.303 0-47.84-21.526-47.84-47.84v-47.84h-95.68v-108.982h382.716V674.846z m-143.517 0h-95.68v47.747l0.095 0.093h95.515c0.024-0.024 0.07-0.047 0.094-0.093l-0.024-47.747z m239.196-185.73v161.81c0 13.152-10.766 23.92-23.92 23.92h-47.839v-47.84h23.92v-137.89h-273.99V117.4H200.6V627.007h23.92v47.84h-47.84c-13.151 0-23.92-10.77-23.92-23.92V93.48c0-13.151 10.769-23.92 23.92-23.92h228.325v-64.468h326.179L870.355 137.1V489.116h-143.52z m5.117-416.376v62.568h70.754l-70.754-62.568z m90.563 110.408H684.112v-130.216H452.845V441.276h369.67v-258.128zM515.267 338.69H760.86v-48.095H515.267V338.69zM515.267 203.614h124.528v-48.096H515.267v48.096z"  horiz-adv-x="1024" />

    
    <glyph glyph-name="725bianjiqi_biaoti" unicode="&#58977;" d="M49.322 895.998v-313.185l41.176 1.304c14.118 114.315 106.899 192.294 159.68 205.234 52.814 13.033 171.505-17.47 171.505-17.47v-775.753c0-45.49-80.12-65.598-80.12-65.598l-82.355-1.305-1.305-57.22H771.7V-72.17h-94.022c-42.45 3.847-100.848 68.297-100.848 68.297V771.878s98.272 34.444 190.958 17.564c92.686-16.912 171.256-210.509 171.256-210.509h41.175V896H49.315l0.007-0.001z"  horiz-adv-x="1025" />

    
    <glyph glyph-name="726bianjiqi_duanla" unicode="&#58978;" d="M512.621 193.396c-116.589 0.019-233.178-0.193-349.766 0.159-32.394 0.098-53.927 15.853-62.362 43.253-8.248 26.797-0.212 55.566 23.746 69.788 12.917 7.669 29.787 12.112 44.896 12.161 228.764 0.746 457.527 0.712 686.29 0.337 37.524-0.062 59.414-15.016 68.528-42.992 8.917-27.359 2.082-55.065-22.342-70.053-13.308-8.161-31.264-12.002-47.171-12.14-113.925-0.991-227.874-0.529-341.819-0.513zM512.217 830.963c115.729-0.006 231.469 0.342 347.192-0.169 49.744-0.22 80.292-41.991 63.932-85.535-9.741-25.904-32.379-40.637-64.803-40.755-78.626-0.291-157.252-0.112-235.877-0.112-151.951 0.003-303.902-0.215-455.858 0.147-49.108 0.117-79.781 38.671-66.362 81.782 9.005 28.932 31.781 44.5 67.237 44.567 114.843 0.214 229.691 0.079 344.539 0.075zM480.223 448.961c-106.086 0-212.167-0.286-318.249 0.176-30.797 0.134-51.693 15.587-60.884 41.986-8.845 25.406-2.617 53.828 19.807 68.704 13.181 8.741 30.85 14.961 46.533 15.037 208.629 0.968 417.264 0.865 625.902 0.463 42.071-0.083 69.863-26.523 69.948-63.625 0.082-36.997-27.752-62.585-70.104-62.738-104.319-0.378-208.64-0.125-312.954-0.125l0.001 0.122zM480 62.482c106.071-0.026 212.151 0.248 318.234-0.198 30.74-0.129 52.497-15.864 61.284-41.479 8.715-25.436 2.456-54.011-19.493-68.994-12.346-8.43-29.067-14.621-43.854-14.689-210.385-0.927-420.781-0.813-631.166-0.48-39.735 0.062-67.45 26.744-67.714 62.755-0.264 36.206 27.011 62.75 67.118 62.946 105.195 0.512 210.391 0.17 315.591 0.139z"  horiz-adv-x="1024" />

    
    <glyph glyph-name="738bianjiqi_chaolianjie" unicode="&#58979;" d="M379.064 102.743c-20.447-20.383-53.6-20.383-74.113 0l-74.18 74.18c-20.447 20.51-20.447 53.666 0 74.177l95.916 95.853L416.734 437c-40.184 23.737-92.627 18.577-127.137-15.87l-132.94-133.004c-40.96-40.896-40.96-107.333 0-148.23L267.86 28.694c40.96-41.025 107.334-41.025 148.295 0l132.94 132.876c34.51 34.447 39.543 86.951 15.932 127.201L379.064 102.743z m488.292 525.445L756.152 739.392c-40.96 40.894-107.334 40.894-148.294 0l-132.94-133.007c-34.51-34.444-39.54-86.82-15.933-127.07L644.95 665.213c20.446 20.513 53.603 20.513 74.114 0l74.114-74.178c20.514-20.513 20.514-53.666 0-74.18l-185.9-185.898c40.187-23.609 92.628-18.576 127.135 15.997l132.943 132.877c40.958 41.024 40.958 107.333 0 148.357z m-497.514-367.8l18.51-18.575c15.353-15.351 40.25-15.351 55.603 0l210.217 210.28c15.414 15.353 15.414 40.25 0 55.603l-18.513 18.577c-15.353 15.35-40.25 15.35-55.604 0l-210.213-210.28c-15.416-15.354-15.416-40.25 0-55.604z m0 0"  horiz-adv-x="1024" />

    
    <glyph glyph-name="736bianjiqi_daxie" unicode="&#58980;" d="M583.772 0.2c-6.902 6.896-13.327 19.62-19.266 38.17L374.728 641.581h-80.256L107.197 38.37c-4.28-14.51-10.583-27.228-18.908-38.17-11.182-18.544-24.852-27.821-41.021-27.821H26.93v-34.96h176.932v34.96h-19.261c-4.521 0-9.81 2.073-15.878 6.24-6.067 4.163-9.451 8.5-10.168 13.021-2.14 6.42-3.21 10.225-3.21 11.413 0 1.899 2.498 13.199 7.49 33.889l37.812 113.792h178.36l38.17-126.992c1.9-8.084 2.857-13.91 2.857-17.48 0-9.512-3.451-16.885-10.348-22.113-9.042-7.848-20.69-11.77-34.96-11.77h-14.622v-34.96h283.233v34.96h-21.76c-14.27 0-26.88 9.277-37.806 27.822zM215.281 204.954l74.552 230.799 73.129-230.8H215.28zM940.918 268.34c0-3.365-2.268-8.32-6.81-14.874-4.536-6.554-10.588-9.836-18.15-9.836-10.256 0-15.38 9.923-15.38 29.758V443.832c0 33.956-9.33 61.061-27.992 81.316s-47.57 30.387-86.733 30.387c-32.107 0-59.381-5.13-81.817-15.38-22.441-10.255-36.434-32.359-41.979-66.314 0-17.818 2.934-31.647 8.827-41.477 5.878-9.836 13.276-15.596 22.19-17.275 29.916 0 46.392 11.683 49.418 35.051 0 8.571-0.512 16.553-1.52 23.957-1.004 7.388-1.51 13.527-1.51 18.406 2.687 12.268 16.47 18.406 41.348 18.406 13.45-0.844 22.313-6.896 26.599-18.155 4.29-11.264 6.43-26.476 6.43-45.635v-32.025c-16.64 0-41.39-4.793-74.25-14.372-32.87-9.58-57.702-28.58-74.511-56.986-8.909-16.809-13.363-36.475-13.363-58.997 0-23.363 5.043-44.253 15.13-62.654 10.086-18.411 25.292-29.88 45.634-34.422 44.882 0 78.669 18.32 101.36 54.969 1.849-8.745 8.49-19.712 19.922-32.907 11.428-13.199 31.6-19.793 60.514-19.793 27.397 3.363 48.076 21.934 62.023 55.726l-15.38 22.681z m-127.079 27.99c0-9.58-4.121-19.753-12.35-30.51-8.237-10.762-17.57-16.133-27.99-16.133-6.554 0-12.78 2.437-18.663 7.311-8.908 7.06-13.358 18.407-13.358 34.038 0 15.294 4.117 30.761 12.35 46.398 9.078 15.124 20.05 25.63 32.911 31.513 12.862 5.878 21.888 8.827 27.1 8.827v-81.444zM386.985 673.49l165.483-113.68s10.481-3.834 19.41-1.945c9.667 2.038 9.539 9.114 9.539 9.114v87.383h161.009s126.914-17.076 126.914-64.174c0 0-2.12 148.142-131.016 148.142H581.422V831.698s0.271 4.94-9.462 7.086c-8.156 1.797-15.98-3.722-15.98-3.722L391.476 718.28s-15.39-7.865-15.39-23.43c0-15.17 10.9-21.36 10.9-21.36z"  horiz-adv-x="1024" />

    
    <glyph glyph-name="737bianjiqi_xiaoxie" unicode="&#58981;" d="M583.772 0.2c-6.902 6.896-13.327 19.62-19.266 38.17L374.728 641.581h-80.256L107.197 38.37c-4.28-14.51-10.583-27.228-18.908-38.17-11.182-18.544-24.852-27.821-41.021-27.821H26.93v-34.96h176.932v34.96h-19.261c-4.521 0-9.81 2.073-15.878 6.24-6.067 4.163-9.451 8.5-10.168 13.021-2.14 6.42-3.21 10.225-3.21 11.413 0 1.899 2.498 13.199 7.49 33.889l37.812 113.792h178.36l38.17-126.992c1.9-8.084 2.857-13.91 2.857-17.48 0-9.512-3.451-16.885-10.348-22.113-9.042-7.848-20.69-11.77-34.96-11.77h-14.622v-34.96h283.233v34.96h-21.76c-14.27 0-26.88 9.277-37.806 27.822zM215.281 204.954l74.552 230.799 73.129-230.8H215.28zM940.918 268.34c0-3.365-2.268-8.32-6.81-14.874-4.536-6.554-10.588-9.836-18.15-9.836-10.256 0-15.38 9.923-15.38 29.758V443.832c0 33.956-9.33 61.061-27.992 81.316s-47.57 30.387-86.733 30.387c-32.107 0-59.381-5.13-81.817-15.38-22.441-10.255-36.434-32.359-41.979-66.314 0-17.818 2.934-31.647 8.827-41.477 5.878-9.836 13.276-15.596 22.19-17.275 29.916 0 46.392 11.683 49.418 35.051 0 8.571-0.512 16.553-1.52 23.957-1.004 7.388-1.51 13.527-1.51 18.406 2.687 12.268 16.47 18.406 41.348 18.406 13.45-0.844 22.313-6.896 26.599-18.155 4.29-11.264 6.43-26.476 6.43-45.635v-32.025c-16.64 0-41.39-4.793-74.25-14.372-32.87-9.58-57.702-28.58-74.511-56.986-8.909-16.809-13.363-36.475-13.363-58.997 0-23.363 5.043-44.253 15.13-62.654 10.086-18.411 25.292-29.88 45.634-34.422 44.882 0 78.669 18.32 101.36 54.969 1.849-8.745 8.49-19.712 19.922-32.907 11.428-13.199 31.6-19.793 60.514-19.793 27.397 3.363 48.076 21.934 62.023 55.726l-15.38 22.681z m-127.079 27.99c0-9.58-4.121-19.753-12.35-30.51-8.237-10.762-17.57-16.133-27.99-16.133-6.554 0-12.78 2.437-18.663 7.311-8.908 7.06-13.358 18.407-13.358 34.038 0 15.294 4.117 30.761 12.35 46.398 9.078 15.124 20.05 25.63 32.911 31.513 12.862 5.878 21.888 8.827 27.1 8.827v-81.444zM530.304 649.242h161.004v-87.383s-0.113-7.076 9.548-9.114c8.924-1.89 19.41 1.946 19.41 1.946L885.745 668.37s10.9 6.19 10.9 21.36c0 15.57-15.39 23.43-15.39 23.43L716.748 829.942s-7.824 5.52-15.98 3.722c-9.728-2.145-9.461-7.086-9.461-7.086v-93.368H534.4c-128.896 0-131.016-148.142-131.016-148.142 0.005 47.098 126.92 64.174 126.92 64.174z"  horiz-adv-x="1024" />

    
    <glyph glyph-name="740bianjiqi_maodian" unicode="&#58982;" d="M979.035 280.672l-71.459 71.458c-4.778 4.781-11.133 7.412-17.897 7.412-0.768 0-1.548-0.034-2.317-0.103-7.03 0.208-13.669-2.443-18.627-7.405l-73.155-73.156c-4.789-4.785-7.426-11.15-7.426-17.924 0-6.77 2.636-13.134 7.425-17.921 4.786-4.788 11.151-7.426 17.923-7.426 6.773 0 13.136 2.637 17.922 7.426l28.271 28.271c-6.858-81.979-42.685-159.126-101.085-217.529-59.196-59.195-137.562-95.153-220.784-101.33l-0.001 487.092 198.769 0.001c13.974 0 25.345 11.371 25.345 25.346s-11.373 25.346-25.349 25.346H537.824V772.248l178.004-178.004c4.787-4.787 11.152-7.424 17.922-7.424s13.136 2.637 17.923 7.424c4.788 4.787 7.426 11.153 7.426 17.923 0 6.771-2.637 13.136-7.426 17.923L531.899 849.864c-5.325 5.327-12.642 7.993-20.219 7.308-6.994 0.174-13.669-2.452-18.622-7.405L273.282 629.992c-9.883-9.884-9.882-25.965 0-35.845 4.788-4.788 11.153-7.425 17.923-7.425 6.771 0 13.135 2.636 17.923 7.425L487.13 772.149v-281.917H288.367c-13.977 0-25.348-11.371-25.348-25.346 0-13.977 11.371-25.348 25.346-25.348l198.766 0.001V-47.68c-83.916 5.794-162.921 41.796-222.581 101.455-58.91 58.911-94.799 136.758-101.258 219.493l28.438-28.439c4.786-4.787 11.152-7.425 17.923-7.425s13.136 2.637 17.924 7.425c4.786 4.788 7.424 11.153 7.424 17.923 0 6.773-2.637 13.138-7.425 17.922l-71.458 71.458c-4.778 4.781-11.13 7.414-17.884 7.414-0.778 0-1.562-0.036-2.334-0.106-7.031 0.165-13.682-2.463-18.625-7.405l-73.156-73.157c-4.787-4.786-7.424-11.152-7.424-17.923 0-6.769 2.636-13.133 7.424-17.921 4.787-4.788 11.152-7.426 17.923-7.426 6.772 0 13.138 2.637 17.923 7.426l30.426 30.426c2.98-44.62 13.302-88.067 30.691-129.179 20.253-47.884 49.243-90.885 86.163-127.805 36.917-36.919 79.918-65.91 127.805-86.164 49.595-20.976 102.257-31.611 156.526-31.611 54.268 0 106.931 10.635 156.525 31.611 47.885 20.253 90.885 49.243 127.805 86.164 36.919 36.917 65.909 79.918 86.164 127.806 17.617 41.647 27.978 85.659 30.81 130.853l30.306-30.306c4.785-4.787 11.151-7.425 17.924-7.425 6.771 0 13.135 2.637 17.923 7.424s7.425 11.151 7.425 17.924c0.002 6.772-2.635 13.136-7.422 17.922z"  horiz-adv-x="1024" />

    
    <glyph glyph-name="746bianjiqi_biaoqing" unicode="&#58983;" d="M510.114-63.516c-119.434 0-231.73 46.511-316.157 130.903C109.5 151.893 63.011 264.178 63.033 383.654c0 119.463 46.52 231.77 130.992 316.233C278.463 784.32 390.748 830.833 510.192 830.833c119.485 0 231.76-46.513 316.241-130.938 174.337-174.404 174.315-458.092 0-632.42C741.932-16.97 629.6-63.516 510.114-63.516z m0.078 836.066c-103.89 0-201.53-40.436-274.975-113.867-73.457-73.423-113.914-171.117-113.914-275.029C121.29 279.73 161.717 182.048 235.15 108.6c73.436-73.398 171.105-113.88 274.964-113.88 103.924 0 201.626 40.502 275.106 113.969 151.614 151.598 151.614 398.341 0 549.99-73.467 73.436-171.126 113.871-275.028 113.871z m-158.9-510.936s52.39-83.75 158.81-83.75 176.208 83.75 176.208 83.75 39.555 0.132 39.546-41.873c0 0-68.598-97.706-215.754-97.706-147.171 0-195.06 97.706-195.06 97.706s-1.45 41.873 36.253 41.873h-0.003z m28.876 265.83c-30.155 0-54.763-24.526-54.763-54.77 0-30.204 24.607-54.738 54.763-54.738 30.292 0 54.764 24.534 54.764 54.738-0.001 30.244-24.472 54.77-54.764 54.77z m280.579 0c-30.2 0-54.725-24.526-54.725-54.77 0-30.204 24.526-54.738 54.725-54.738 30.258 0 54.77 24.534 54.77 54.738 0 30.244-24.512 54.77-54.77 54.77z m0 0"  horiz-adv-x="1024" />

    
    <glyph glyph-name="747bianjiqi_tuya" unicode="&#58984;" d="M953.87 518.413c-3.615 3.69-8.051 5.59-13.184 5.648-12.528 0.141-26.537-10.954-36.075-20.277L563.331 172.25c-12.513-12.241-58.579-87.06-60.533-90.24l-7.461-12.133 12.15 7.435c3.221 1.97 79.048 48.427 91.535 60.636l341.28 331.534c15.168 14.832 26.7 35.475 13.567 48.931zM740.87 415.298c0-27.64-22.433-50.07-50.07-50.07-27.643 0-50.075 22.43-50.075 50.07s22.432 50.072 50.075 50.072c27.637 0 50.07-22.433 50.07-50.072zM215.127 240.057c-27.64 0-50.07 22.426-50.07 50.066 0 27.64 22.43 50.073 50.07 50.073 27.639 0 50.071-22.433 50.071-50.073s-22.432-50.066-50.07-50.066zM290.234 415.298c0 27.64 22.433 50.072 50.069 50.072 27.64 0 50.072-22.433 50.072-50.072s-22.431-50.07-50.072-50.07c-27.637 0-50.07 22.407-50.07 50.07zM465.481 465.37c0 27.639 22.43 50.069 50.07 50.069s50.073-22.43 50.073-50.069c0-27.64-22.433-50.072-50.074-50.072-27.64 0-50.069 22.408-50.069 50.072zM852.743 295.563C829.73 146.435 693.84-4.703 500.416-4.703c-36.82 0-76.081 7.283-107.714 19.98-33.644 13.506-48.903 29.385-51.963 39.737-1.596 5.403-3.097 11.309-4.686 17.56-4.655 18.321-9.932 39.087-20.273 56.32-18.394 30.65-44.862 37.084-63.828 37.084-7.175 0-14.815-0.914-22.7-2.714-12.88-2.94-25.39-4.43-37.182-4.43-25.15 0-67.536 6.674-68.839 51.364-6.597 228.189 180.929 352.126 369.696 373.728 13.351 1.526 27.633 2.299 42.449 2.299 53.181 0 111.664-10.011 152.628-26.127 9.257-3.642 14.39-6.023 39.246-18.204 25.68-12.585 46.398-30.465 62.965-47.694l30.19 53.133c-18.046 17.03-40.377 34.443-67.175 47.576-24.917 12.21-31.928 15.531-43.613 20.127-47.39 18.645-114.156 30.226-174.241 30.226-17.045 0-33.58-0.901-49.155-2.68-115.638-13.234-220.925-59.122-296.463-129.215-85.6-79.428-129.01-184.853-125.54-304.883 1.006-34.508 15.134-63.085 40.855-82.646 22.404-17.037 52.487-26.042 86.997-26.042 16.204 0 33.133 1.987 50.322 5.91 3.586 0.818 6.802 1.234 9.559 1.234 11.481 0 17.01-10.055 26.881-48.906 1.656-6.516 3.369-13.256 5.287-19.752 9.445-31.945 39.385-58.847 86.59-77.795 38.36-15.398 85.636-24.23 129.706-24.23 54.162 0 106.59 10.147 155.828 30.156 46.291 18.814 88.597 45.814 125.742 80.252 35.782 33.176 65.34 71.869 87.851 115.007 22.55 43.21 36.927 88.763 42.738 135.416 0.262 2.12 0.508 4.326 0.732 6.554l0.149 1.471v0.059c0.222 2.338 0.405 4.7 0.572 7.072l-61.284-16.681z"  horiz-adv-x="1024" />

    
    <glyph glyph-name="741bianjiqi_moren" unicode="&#58985;" d="M112.538 704.804c151.956-0.359 303.902-0.144 455.859-0.149 78.617 0 264.77-0.179 343.398 0.113 32.42 0.113 55.06 14.848 64.799 40.755 16.358 43.54-14.188 85.315-63.928 85.535-115.733 0.512-338.99 0.164-454.718 0.164-114.847 0.01-229.698 0.138-344.54-0.072-35.456-0.072-58.235-15.642-67.236-44.57-13.414-43.11 17.26-81.664 66.366-81.776zM912.67 334.418c-115.732 0.512-338.99 0.159-454.717 0.159-114.846 0.01-229.698 0.138-344.54-0.072-35.456-0.072-58.235-15.642-67.236-44.57-13.42-43.11 17.255-81.659 66.36-81.781 151.957-0.359 303.903-0.139 455.86-0.149 78.617 0 264.77-0.18 343.398 0.118 32.42 0.107 55.06 14.848 64.799 40.75 16.369 43.546-14.182 85.325-63.923 85.545zM912.67 83.538c-115.732 0.512-338.99 0.159-454.717 0.159-114.846 0.01-229.698 0.138-344.54-0.072-35.456-0.072-58.235-15.642-67.236-44.57-13.42-43.11 17.255-81.659 66.36-81.781 151.957-0.359 303.903-0.139 455.86-0.149 78.617 0 264.77-0.18 343.398 0.118 32.42 0.107 55.06 14.848 64.799 40.75 16.369 43.546-14.182 85.325-63.923 85.545zM912.67 585.298c-115.732 0.512-77.87 0.159-193.597 0.159-114.846 0.01-9.533 0.138-124.38-0.072-35.456-0.072-58.235-15.642-67.236-44.57-13.42-43.11 17.25-81.659 66.36-81.781 151.957-0.359 17.183-0.139 169.14-0.149 78.617 0 70.21-0.18 148.838 0.118 32.42 0.107 55.06 14.848 64.799 40.75 16.369 43.546-14.182 85.325-63.923 85.545zM53.76 662.38h437.76v-273.26H53.76V662.38z"  horiz-adv-x="1024" />

    
    <glyph glyph-name="748bianjiqi_shipin" unicode="&#58986;" d="M984.615 856.615h-39.384v-78.769H827.077v78.77H196.923v-78.77H78.77v78.77H39.385C17.684 856.615 0 838.931 0 817.23v-866.462c0-21.7 17.684-39.384 39.385-39.384h39.384v39.384h118.154v-39.384h630.154v39.384H945.23v-39.384h39.384c21.701 0 39.385 17.683 39.385 39.384V817.231c0 21.7-17.684 39.384-39.385 39.384zM196.923 68.923H78.77V187.077h118.154v-118.154z m0 236.308H78.77V423.385h118.154V305.23z m0 236.307H78.77V659.692h118.154v-118.154z m495.774-183.374L436.578 208.778c-4.174-2.088-8.743-3.072-13.272-3.072-5.435 0-10.713 1.457-15.518 4.293-8.664 5.238-13.942 14.611-13.942 24.615V533.346c0 10.044 5.278 19.417 13.942 24.655 8.744 5.278 19.653 5.75 28.751 1.182l256.118-149.347c9.965-4.923 16.266-14.887 16.266-25.836s-6.301-20.913-16.226-25.836z m252.534-289.24H827.077V187.076H945.23v-118.154z m0 236.307H827.077V423.385H945.23V305.23z m0 236.307H827.077V659.692H945.23v-118.154z"  horiz-adv-x="1024" />

    
    <glyph glyph-name="attach" unicode="&#59096;" d="M346.585 173.292c11.815-11.815 29.538-9.846 41.354 0l196.923 196.923c13.785 13.785 37.415 15.754 55.138 0 17.723-15.754 15.754-43.323 0-59.077l-242.215-238.277c-53.169-53.169-141.785-53.169-194.954 0l-1.969 1.969c-53.169 53.169-53.169 141.785 0 194.954l427.323 427.323c53.169 53.169 141.785 53.169 194.954 0l1.969-1.969c53.169-53.169 53.169-141.785 0-194.954l-1.969-1.969c-9.846-9.846-11.815-23.631-3.938-35.446 11.815-21.662 21.662-45.292 27.569-68.923 3.938-15.754 21.662-19.692 33.477-9.846 15.754 15.754 29.538 31.508 29.538 31.508 100.431 100.431 100.431 263.877 0 364.308h-3.938c-100.431 100.431-263.877 100.431-364.308-0l-427.323-425.354c-100.431-100.431-100.431-263.877 0-364.308l3.938-3.938c100.431-100.431 261.908-100.431 362.338 0l244.185 242.215c63.015 63.015 61.046 165.415-3.938 228.431-63.015 61.046-165.415 57.108-226.462-5.908l-192.985-192.985c-11.815-11.815-11.815-31.508 0-43.323l45.292-41.354z"  horiz-adv-x="1024" />

    
    <glyph glyph-name="bold1" unicode="&#59097;" d="M807.385 521.846c0 118.154-94.523 216.615-206.769 216.615h-324.923c-21.662 0-39.385-17.723-39.385-39.385v-649.846c0-21.662 17.723-39.385 39.385-39.385h324.923c112.246-0 206.769 98.462 206.769 216.615 0 57.108-21.662 108.308-57.108 147.692 35.446 39.385 57.108 90.585 57.108 147.692zM600.615 147.692h-226.462v157.538h226.462c37.415 0 70.892-37.415 70.892-78.769s-33.477-78.769-70.892-78.769zM600.615 443.077h-226.462v157.538h226.462c37.415 0 70.892-37.415 70.892-78.769s-33.477-78.769-70.892-78.769z"  horiz-adv-x="1024" />

    
    <glyph glyph-name="expand" unicode="&#59117;" d="M960.985 856.615h-305.231c-19.692 0-25.6-17.723-9.846-33.477l96.492-96.492-177.231-177.231c-9.846-9.846-9.846-25.6 0-37.415l72.862-72.862c9.846-9.846 25.6-9.846 37.415 0l179.2 179.2 96.492-96.492c15.754-15.754 33.477-9.846 33.477 9.846v303.262c0 11.815-11.815 21.662-23.631 21.662zM68.923-88.615h303.262c19.692 0 25.6 21.662 9.846 37.415l-96.492 98.462 177.231 179.2c9.846 9.846 9.846 27.569 0 37.415l-72.862 72.862c-9.846 9.846-25.6 9.846-37.415 0l-177.231-177.231-98.462 96.492c-17.723 15.754-37.415 9.846-37.415-9.846v-303.262c0-13.785 15.754-31.508 29.538-31.508zM984.615-64.985v305.231c0 19.692-17.723 25.6-33.477 9.846l-96.492-96.492-177.231 177.231c-9.846 9.846-25.6 9.846-37.415 0l-72.862-72.862c-9.846-9.846-9.846-25.6 0-37.415l179.2-179.2-96.492-96.492c-15.754-15.754-9.846-33.477 9.846-33.477h303.262c11.815 0 21.662 11.815 21.662 23.631zM39.385 827.077v-303.262c0-19.692 21.662-25.6 37.415-9.846l98.462 96.492 179.2-177.231c9.846-9.846 27.569-9.846 37.415 0l72.862 72.862c9.846 9.846 9.846 25.6 0 37.415l-177.231 177.231 96.492 98.462c15.754 17.723 9.846 37.415-9.846 37.415h-303.262c-13.785 0-31.508-15.754-31.508-29.538z"  horiz-adv-x="1024" />

    
    <glyph glyph-name="image1" unicode="&#59125;" d="M984.615 699.077c0 43.323-35.446 78.769-78.769 78.769h-787.692c-43.323 0-78.769-35.446-78.769-78.769v-630.154c0-43.323 35.446-78.769 78.769-78.769h787.692c43.323 0 78.769 35.446 78.769 78.769v630.154zM779.815 147.692h-571.077c-23.631 0-37.415 25.6-25.6 45.292l173.292 301.292c7.877 13.785 25.6 13.785 33.477 0l104.369-179.2c7.877-11.815 25.6-13.785 33.477-1.969l84.677 122.092c7.877 11.815 25.6 11.815 33.477 0l155.569-248.123c11.815-17.723 0-39.385-21.662-39.385zM728.615 502.154c-43.323 0-78.769 35.446-78.769 78.769s35.446 78.769 78.769 78.769 78.769-35.446 78.769-78.769-35.446-78.769-78.769-78.769z"  horiz-adv-x="1024" />

    
    <glyph glyph-name="insert_tag_field" unicode="&#59127;" d="M320.985 655.754l-45.292 37.415c-13.785 9.846-29.538 7.877-41.354-3.938l-228.431-287.508c-7.877-9.846-7.877-25.6 0-37.415l230.4-285.538c9.846-11.815 27.569-15.754 41.354-3.938l45.292 37.415c13.785 9.846 15.754 29.538 3.938 41.354l-185.108 230.4 187.077 230.4c7.877 11.815 5.908 29.538-7.877 41.354zM1018.092 401.723l-230.4 285.538c-9.846 11.815-27.569 15.754-41.354 3.938l-45.292-37.415c-13.785-9.846-15.754-29.538-3.938-41.354l187.077-230.4-187.077-230.4c-9.846-11.815-7.877-31.508 3.938-41.354l45.292-37.415c13.785-9.846 29.538-7.877 41.354 3.938l230.4 287.508c7.877 13.785 7.877 27.569 0 37.415zM622.277 683.323l-59.077 13.785c-15.754 3.938-33.477-5.908-37.415-21.662l-145.723-559.262c-3.938-15.754 5.908-31.508 21.662-35.446l59.077-13.785c15.754-3.938 33.477 5.908 37.415 21.662l145.723 559.262c3.938 17.723-5.908 31.508-21.662 35.446z"  horiz-adv-x="1024" />

    
    <glyph glyph-name="italic1" unicode="&#59128;" d="M748.308 653.785v25.6c0 21.662-17.723 39.385-39.385 39.385h-275.692c-21.662 0-39.385-17.723-39.385-39.385v-39.385c0-21.662 17.723-39.385 39.385-39.385 33.477 0 59.077-31.508 51.2-63.015l-70.892-346.585c-5.908-25.6-27.569-43.323-51.2-43.323h-47.262c-21.662 0-39.385-17.723-39.385-39.385v-39.385c0-21.662 17.723-39.385 39.385-39.385h275.692c21.662 0 39.385 17.723 39.385 39.385v39.385c0 21.662-17.723 39.385-39.385 39.385-33.477 0-59.077 31.508-51.2 63.015l70.892 346.585c5.908 25.6 27.569 43.323 51.2 43.323h33.477c29.538 0 53.169 23.631 53.169 53.169z"  horiz-adv-x="1024" />

    
    <glyph glyph-name="link1" unicode="&#59137;" d="M535.631 74.831l-41.354 5.908s-27.569 5.908-41.354 11.815c-7.877 1.969-17.723 0-23.631-5.908l-9.846-9.846c-57.108-57.108-149.662-63.015-208.738-11.815-66.954 57.108-68.923 159.508-7.877 220.554l149.662 149.662c19.692 19.692 43.323 31.508 66.954 39.385 31.508 7.877 64.985 5.908 94.523-5.908 17.723-7.877 35.446-17.723 51.2-33.477 7.877-7.877 13.785-15.754 19.692-25.6 7.877-13.785 25.6-15.754 35.446-3.938l55.138 55.138c7.877 7.877 7.877 19.692 1.969 29.538-7.877 11.815-17.723 21.662-27.569 31.508-13.785 13.785-29.538 27.569-47.262 37.415-27.569 17.723-59.077 29.538-92.554 35.446-61.046 11.815-128 1.969-183.138-27.569-21.662-11.815-43.323-27.569-61.046-45.292l-143.754-143.754c-104.369-104.369-112.246-273.723-11.815-380.062 104.369-114.215 281.6-116.185 389.908-7.877l49.231 49.231c13.785 9.846 3.938 33.477-13.785 35.446zM897.969 781.785c-108.308 100.431-277.662 92.554-380.062-11.815l-45.292-43.323c-13.785-13.785-3.938-37.415 13.785-39.385 27.569-1.969 55.138-7.877 82.708-15.754 7.877-1.969 17.723 0 23.631 5.908l9.846 9.846c57.108 57.108 149.662 63.015 208.738 11.815 66.954-57.108 68.923-159.508 7.877-220.554l-149.662-149.662c-19.692-19.692-43.323-31.508-66.954-39.385-31.508-7.877-64.985-5.908-94.523 5.908-17.723 7.877-35.446 17.723-51.2 33.477-7.877 7.877-13.785 15.754-19.692 25.6-7.877 13.785-25.6 15.754-35.446 3.938l-55.138-55.138c-7.877-7.877-7.877-19.692-1.969-29.538 7.877-11.815 17.723-21.662 27.569-31.508 13.785-13.785 31.508-27.569 47.262-37.415 27.569-17.723 59.077-29.538 90.585-35.446 61.046-11.815 128-1.969 183.138 27.569 21.662 11.815 43.323 27.569 61.046 45.292l149.662 149.662c110.277 108.308 106.338 285.538-5.908 389.908z"  horiz-adv-x="1024" />

    
    <glyph glyph-name="quotation_marks" unicode="&#59157;" d="M872.369 768c-177.231 0-313.108-137.846-313.108-315.077v-423.385c0-15.754 13.785-29.538 29.538-29.538h334.769c15.754 0 29.538 13.785 29.538 29.538v334.769c0 15.754-13.785 29.538-29.538 29.538h-246.154v59.077c0 98.462 96.492 196.923 194.954 196.923h51.2c15.754 0 29.538 13.785 29.538 29.538v59.077c0 15.754-13.785 29.538-29.538 29.538h-51.2zM384 768c-177.231 0-313.108-137.846-313.108-315.077v-423.385c0-15.754 13.785-29.538 29.538-29.538h334.769c15.754 0 29.538 13.785 29.538 29.538v334.769c0 15.754-13.785 29.538-29.538 29.538h-246.154v59.077c0 98.462 96.492 196.923 194.954 196.923h51.2c15.754 0 29.538 13.785 29.538 29.538v59.077c0 15.754-13.785 29.538-29.538 29.538h-51.2z"  horiz-adv-x="1024" />

    
    <glyph glyph-name="remove_formatting" unicode="&#59159;" d="M888.123 90.585l90.585 90.585c7.877 7.877 7.877 19.692 0 27.569l-55.138 55.138c-7.877 7.877-19.692 7.877-27.569 0l-88.615-92.554-84.677 84.677c-7.877 7.877-19.692 7.877-27.569 0l-55.138-55.138c-7.877-7.877-7.877-19.692 0-27.569l84.677-84.677-82.708-82.708c-7.877-7.877-7.877-19.692 0-27.569l55.138-55.138c7.877-7.877 19.692-7.877 27.569 0l82.708 82.708 88.615-88.615c7.877-7.877 19.692-7.877 27.569 0l55.138 55.138c7.877 7.877 7.877 19.692 0 27.569l-90.585 90.585zM94.523 738.462h212.677l-80.738-456.862c-3.938-19.692 9.846-35.446 27.569-35.446h100.431c13.785 0 27.569 9.846 29.538 23.631l82.708 468.677h216.615c13.785 0 27.569 9.846 29.538 25.6l9.846 59.077c3.938 17.723-9.846 33.477-29.538 33.477h-590.769c-13.785 0-25.6-9.846-27.569-25.6l-9.846-59.077c-3.938-17.723 9.846-33.477 29.538-33.477zM551.385 137.846c0 15.754-13.785 29.538-29.538 29.538h-452.923c-15.754 0-29.538-13.785-29.538-29.538v-59.077c0-15.754 13.785-29.538 29.538-29.538h452.923c15.754 0 29.538 13.785 29.538 29.538v59.077z"  horiz-adv-x="1024" />

    
    <glyph glyph-name="remove_link" unicode="&#59160;" d="M472.615 175.262c-11.815 0-23.631 1.969-35.446 5.908-11.815 1.969-25.6 5.908-37.415 9.846-7.877 1.969-15.754 0-19.692-3.938l-7.877-7.877c-49.231-49.231-129.969-55.138-183.138-9.846-57.108 51.2-61.046 139.815-5.908 192.985l129.969 129.969c17.723 17.723 37.415 27.569 59.077 33.477 27.569 7.877 57.108 5.908 82.708-5.908 15.754-5.908 31.508-15.754 43.323-29.538 5.908-5.908 11.815-13.785 17.723-23.631 5.908-11.815 21.662-13.785 31.508-3.938l49.231 49.231c7.877 7.877 7.877 17.723 1.969 25.6-7.877 9.846-15.754 17.723-23.631 27.569-11.815 11.815-27.569 23.631-41.354 33.477-25.6 15.754-51.2 25.6-80.738 31.508-53.169 9.846-110.277 1.969-161.477-25.6-19.692-9.846-37.415-23.631-53.169-39.385l-126.031-126.031c-90.585-90.585-98.462-238.277-9.846-332.8 92.554-98.462 248.123-102.4 342.646-5.908l43.323 43.323c9.846 9.846 1.969 29.538-15.754 31.508zM797.538 452.923c94.523 94.523 92.554 250.092-5.908 342.646-94.523 86.646-242.215 80.738-332.8-9.846l-39.385-39.385c-11.815-11.815-3.938-31.508 11.815-33.477 23.631-1.969 49.231-5.908 72.862-13.785 7.877-1.969 15.754 0 19.692 3.938l7.877 7.877c49.231 49.231 129.969 55.138 183.138 9.846 57.108-51.2 61.046-139.815 5.908-192.985l-129.969-129.969c-17.723-17.723-37.415-27.569-59.077-33.477-27.569-7.877-57.108-5.908-82.708 5.908-15.754 5.908-31.508 15.754-43.323 29.538-5.908 5.908-11.815 13.785-15.754 21.662-5.908 11.815-21.662 13.785-31.508 3.938l-47.262-47.262c-7.877-7.877-7.877-17.723-1.969-25.6 7.877-9.846 13.785-17.723 23.631-27.569 13.785-13.785 27.569-23.631 41.354-33.477 25.6-15.754 51.2-25.6 80.738-31.508 53.169-9.846 110.277-1.969 161.477 25.6 19.692 9.846 37.415 23.631 53.169 39.385l128 128zM888.123 88.615l90.585 90.585c7.877 7.877 7.877 19.692 0 27.569l-55.138 55.138c-7.877 7.877-19.692 7.877-27.569 0l-88.615-92.554-84.677 84.677c-7.877 7.877-19.692 7.877-27.569 0l-55.138-55.138c-7.877-7.877-7.877-19.692 0-27.569l84.677-84.677-82.708-82.708c-7.877-7.877-7.877-19.692 0-27.569l55.138-55.138c7.877-7.877 19.692-7.877 27.569 0l82.708 82.708 88.615-88.615c7.877-7.877 19.692-7.877 27.569 0l55.138 55.138c7.877 7.877 7.877 19.692 0 27.569l-90.585 90.585z"  horiz-adv-x="1024" />

    
    <glyph glyph-name="richtextbulletedlist" unicode="&#59162;" d="M157.538 630.154c0-15.754-13.785-29.538-29.538-29.538h-59.077c-15.754 0-29.538 13.785-29.538 29.538v59.077c-0 15.754 13.785 29.538 29.538 29.538h59.077c15.754 0 29.538-13.785 29.538-29.538v-59.077zM984.615 689.231c0 15.754-13.785 29.538-29.538 29.538h-689.231c-15.754 0-29.538-13.785-29.538-29.538v-59.077c0-15.754 13.785-29.538 29.538-29.538h689.231c15.754 0 29.538 13.785 29.538 29.538v59.077zM157.538 413.538c0 15.754-13.785 29.538-29.538 29.538h-59.077c-15.754 0-29.538-13.785-29.538-29.538v-59.077c0-15.754 13.785-29.538 29.538-29.538h59.077c15.754 0 29.538 13.785 29.538 29.538v59.077zM905.846 413.538c0 15.754-13.785 29.538-29.538 29.538h-610.462c-15.754 0-29.538-13.785-29.538-29.538v-59.077c0-15.754 13.785-29.538 29.538-29.538h610.462c15.754 0 29.538 13.785 29.538 29.538v59.077zM157.538 137.846c0 15.754-13.785 29.538-29.538 29.538h-59.077c-15.754 0-29.538-13.785-29.538-29.538v-59.077c0-15.754 13.785-29.538 29.538-29.538h59.077c15.754 0 29.538 13.785 29.538 29.538v59.077zM984.615 137.846c0 15.754-13.785 29.538-29.538 29.538h-689.231c-15.754 0-29.538-13.785-29.538-29.538v-59.077c0-15.754 13.785-29.538 29.538-29.538h689.231c15.754 0 29.538 13.785 29.538 29.538v59.077z"  horiz-adv-x="1024" />

    
    <glyph glyph-name="richtextnumberedlist" unicode="&#59163;" d="M984.615 768v-59.077c0-15.754-13.785-29.538-29.538-29.538h-531.692c-15.754 0-29.538 13.785-29.538 29.538v59.077c0 15.754 13.785 29.538 29.538 29.538h531.692c15.754 0 29.538-13.785 29.538-29.538zM423.385 482.462h354.462c15.754 0 29.538 13.785 29.538 29.538v59.077c0 15.754-13.785 29.538-29.538 29.538h-354.462c-15.754 0-29.538-13.785-29.538-29.538v-59.077c0-15.754 13.785-29.538 29.538-29.538zM955.077 305.231h-531.692c-15.754 0-29.538-13.785-29.538-29.538v-59.077c0-15.754 13.785-29.538 29.538-29.538h531.692c15.754 0 29.538 13.785 29.538 29.538v59.077c0 15.754-13.785 29.538-29.538 29.538zM777.846 108.308h-354.462c-15.754 0-29.538-13.785-29.538-29.538v-59.077c0-15.754 13.785-29.538 29.538-29.538h354.462c15.754 0 29.538 13.785 29.538 29.538v59.077c0 15.754-13.785 29.538-29.538 29.538zM68.923 738.462h49.231v-246.154c0-15.754 13.785-29.538 29.538-29.538h19.692c15.754 0 29.538 13.785 29.538 29.538v285.538c0 21.662-17.723 39.385-39.385 39.385h-88.615c-15.754 0-29.538-13.785-29.538-29.538v-19.692c0-15.754 13.785-29.538 29.538-29.538zM236.308 344.615h-167.385c-15.754 0-29.538-13.785-29.538-29.538v-19.692c0-15.754 13.785-29.538 29.538-29.538h128v-78.769h-118.154c-21.662 0-39.385-17.723-39.385-39.385v-157.538c0-21.662 17.723-39.385 39.385-39.385h167.385c15.754 0 29.538 13.785 29.538 29.538v19.692c0 15.754-13.785 29.538-29.538 29.538h-128v78.769h118.154c21.662 0 39.385 17.723 39.385 39.385v157.538c0 21.662-17.723 39.385-39.385 39.385z"  horiz-adv-x="1024" />

    
    <glyph glyph-name="strikethrough" unicode="&#59177;" d="M238.277 539.569c-3.938 19.692-5.908 43.323-5.908 66.954 0 25.6 5.908 55.138 17.723 82.708 11.815 29.538 29.538 57.108 55.138 80.738 23.631 23.631 57.108 45.292 94.523 61.046 39.385 15.754 84.677 25.6 139.815 25.6 49.231 0 96.492-5.908 141.785-19.692 35.446-11.815 68.923-31.508 98.462-59.077 11.815-11.815 11.815-31.508-1.969-43.323l-53.169-49.231c-11.815-9.846-29.538-11.815-41.354 0-13.785 13.785-29.538 25.6-47.262 35.446-27.569 13.785-59.077 21.662-96.492 21.662-33.477 0-63.015-3.938-84.677-13.785s-41.354-19.692-55.138-35.446-23.631-29.538-29.538-45.292-7.877-31.508-7.877-43.323c0-21.662 3.938-39.385 9.846-55.138 5.908-13.785-3.938-27.569-17.723-27.569h-96.492c-9.846 0-17.723 9.846-19.692 17.723zM785.723 246.154h-98.462c-13.785 0-23.631-13.785-17.723-25.6 5.908-11.815 7.877-27.569 7.877-43.323 0-23.631-5.908-45.292-15.754-64.985-11.815-19.692-25.6-33.477-43.323-47.262-17.723-11.815-37.415-21.662-59.077-27.569-21.662-5.908-41.354-9.846-63.015-9.846-37.415 0-72.862 7.877-106.338 23.631-25.6 11.815-47.262 27.569-66.954 49.231-9.846 11.815-29.538 13.785-41.354 3.938l-55.138-47.262c-11.815-9.846-13.785-29.538-1.969-41.354 27.569-31.508 63.015-55.138 104.369-70.892 51.2-19.692 106.338-29.538 165.415-29.538 43.323 0 84.677 5.908 122.092 19.692 37.415 11.815 70.892 31.508 100.431 55.138 27.569 23.631 51.2 53.169 66.954 88.615 15.754 35.446 25.6 72.862 25.6 116.185 0 15.754 0 25.6-1.969 39.385-3.938 3.938-11.815 11.815-21.662 11.815zM982.646 425.354c-3.938 11.815-15.754 17.723-27.569 17.723h-886.154c-13.785 0-23.631-5.908-27.569-17.723-1.969-3.938-1.969-5.908-1.969-9.846v-59.077c0-15.754 13.785-31.508 29.538-31.508h886.154c15.754 0 29.538 15.754 29.538 31.508v59.077c0 3.938 0 5.908-1.969 9.846z"  horiz-adv-x="1024" />

    
    <glyph glyph-name="underline1" unicode="&#59179;" d="M876.308 68.923h-728.615c-15.754 0-29.538-13.785-29.538-29.538v-59.077c0-15.754 13.785-29.538 29.538-29.538h728.615c15.754 0 29.538 13.785 29.538 29.538v59.077c0 15.754-13.785 29.538-29.538 29.538zM498.215 147.692c-147.692 7.877-261.908 135.877-261.908 283.569v267.815c0 21.662 17.723 39.385 39.385 39.385h39.385c21.662 0 39.385-17.723 39.385-39.385v-269.785c0-84.677 63.015-157.538 147.692-163.446 92.554-5.908 167.385 66.954 167.385 157.538v275.692c0 21.662 17.723 39.385 39.385 39.385h39.385c21.662 0 39.385-17.723 39.385-39.385v-275.692c0-157.538-131.938-283.569-289.477-275.692z"  horiz-adv-x="1024" />

    
    <glyph glyph-name="bianjiqi" unicode="&#59182;" d="M77.44 312.96c-4.48 0-7.68 3.2-7.68 7.68s3.2 7.68 7.68 7.68l855.68 0.64c4.48 0 7.68-3.2 7.68-7.68s-3.2-7.68-7.68-7.68l-855.68-0.64zM508.8 479.36c-3.2 0-6.4 1.92-7.04 5.12-1.28 3.84 0.64 8.32 5.12 9.6l8.32 2.56c3.84 1.28 8.32-0.64 9.6-5.12 1.28-3.84-0.64-8.32-5.12-9.6l-8.32-1.92c-0.64 0-1.92-0.64-2.56-0.64zM645.12 524.16c-3.2 0-6.4 1.92-7.04 5.12-1.28 3.84 0.64 8.32 5.12 9.6l8.32 2.56c3.84 1.28 8.32-0.64 9.6-5.12 1.28-3.84-0.64-8.32-5.12-9.6l-8.32-2.56h-2.56zM519.68 458.24c-2.56 0-4.48 1.28-6.4 3.2-2.56 3.2-1.92 8.32 1.92 10.88l7.04 5.12c3.2 2.56 8.32 1.92 10.88-1.92 2.56-3.2 1.92-8.32-1.92-10.88l-7.04-5.12c-1.28-0.64-3.2-1.28-4.48-1.28zM635.52 542.72c-2.56 0-4.48 1.28-6.4 3.2-2.56 3.2-1.92 8.32 1.92 10.88l7.04 5.12c3.2 2.56 8.32 1.92 10.88-1.92 2.56-3.2 1.92-8.32-1.92-10.88l-7.04-5.12c-1.28-0.64-3.2-1.28-4.48-1.28zM536.32 441.6c-1.28 0-3.2 0.64-4.48 1.28-3.2 2.56-3.84 7.04-1.92 10.88l5.12 7.04c2.56 3.2 7.04 3.84 10.88 1.92 3.2-2.56 3.84-7.04 1.92-10.88l-5.12-7.04c-1.28-1.92-3.84-3.2-6.4-3.2zM620.16 557.44c-1.28 0-3.2 0.64-4.48 1.28-3.2 2.56-3.84 7.04-1.92 10.88l5.12 7.04c2.56 3.2 7.04 3.84 10.88 1.92 3.2-2.56 3.84-7.04 1.92-10.88l-5.12-7.04c-1.28-1.92-3.84-3.2-6.4-3.2zM557.44 430.72c-0.64 0-1.28 0-2.56 0.64-3.84 1.28-6.4 5.76-5.12 9.6l2.56 8.32c1.28 3.84 5.76 6.4 9.6 5.12 3.84-1.28 6.4-5.76 5.12-9.6l-2.56-8.32c-0.64-3.2-3.84-5.76-7.04-5.76zM601.6 567.04c-0.64 0-1.28 0-2.56 0.64-3.84 1.28-6.4 5.76-5.12 9.6l2.56 8.32c1.28 3.84 5.76 6.4 9.6 5.12 3.84-1.28 6.4-5.76 5.12-9.6l-2.56-8.32c-0.64-3.84-3.84-5.76-7.04-5.76zM581.12 427.52c-4.48 0-7.68 3.2-7.68 7.68v8.32c0 4.48 3.2 7.68 7.68 7.68s7.68-3.2 7.68-7.68V435.2c0-4.48-3.84-7.68-7.68-7.68zM581.12 570.24c-4.48 0-7.68 3.2-7.68 7.68v8.32c0 4.48 3.2 7.68 7.68 7.68s7.68-3.2 7.68-7.68v-8.32c-0.64-4.48-3.84-7.68-7.68-7.68zM504.96 503.04c-4.48 0-7.68 3.2-7.68 7.68s3.2 7.68 7.68 7.68h8.32c4.48 0 7.68-3.2 7.68-7.68s-3.2-7.68-7.68-7.68h-8.32zM648.32 503.04c-4.48 0-7.68 3.2-7.68 7.68s3.2 7.68 7.68 7.68h8.32c4.48 0 7.68-3.2 7.68-7.68s-3.2-7.68-7.68-7.68h-8.32zM604.16 430.72c-3.2 0-6.4 1.92-7.04 5.12l-2.56 8.32c-1.28 3.84 0.64 8.32 5.12 9.6 3.84 1.28 8.32-0.64 9.6-5.12l2.56-8.32c1.28-3.84-0.64-8.32-5.12-9.6-0.64 0.64-1.28 0-2.56 0zM625.28 441.6c-2.56 0-4.48 1.28-6.4 3.2l-4.48 7.04c-2.56 3.2-1.92 8.32 1.92 10.88 3.2 2.56 8.32 1.92 10.88-1.92l5.12-7.04c2.56-3.2 1.92-8.32-1.92-10.88-1.92-0.64-3.2-1.28-5.12-1.28zM642.56 458.88c-1.28 0-3.2 0.64-4.48 1.28l-7.04 5.12c-3.2 2.56-3.84 7.04-1.92 10.88 2.56 3.2 7.04 3.84 10.88 1.92l7.04-5.12c3.2-2.56 3.84-7.04 1.92-10.88-1.92-2.56-4.48-3.2-6.4-3.2zM652.8 480c-0.64 0-1.28 0-2.56 0.64l-8.32 2.56c-3.84 1.28-6.4 5.76-5.12 9.6 1.28 3.84 5.76 6.4 9.6 5.12l8.32-2.56c3.84-1.28 6.4-5.76 5.12-9.6-0.64-3.84-3.84-5.76-7.04-5.76zM648.32 503.04c-4.48 0-7.68 3.2-7.68 7.68s3.2 7.68 7.68 7.68h8.32c4.48 0 7.68-3.2 7.68-7.68s-3.2-7.68-7.68-7.68h-8.32zM517.12 523.52c-0.64 0-1.28 0-2.56 0.64l-8.32 2.56c-3.84 1.28-6.4 5.76-5.12 9.6 1.28 3.84 5.76 6.4 9.6 5.12l8.32-2.56c3.84-1.28 6.4-5.76 5.12-9.6-1.28-3.2-3.84-5.76-7.04-5.76zM526.72 542.72c-1.28 0-3.2 0.64-4.48 1.28l-7.04 5.12c-3.2 2.56-3.84 7.04-1.92 10.88 2.56 3.2 7.04 3.84 10.88 1.92l7.04-5.12c3.2-2.56 3.84-7.04 1.92-10.88-1.92-2.56-4.48-3.2-6.4-3.2zM541.44 557.44c-2.56 0-4.48 1.28-6.4 3.2l-5.12 7.04c-2.56 3.2-1.92 8.32 1.92 10.88 3.2 2.56 8.32 1.92 10.88-1.92l5.12-7.04c2.56-3.2 1.92-8.32-1.92-10.88-1.28-0.64-3.2-1.28-4.48-1.28zM560 567.04c-3.2 0-6.4 1.92-7.04 5.12l-2.56 8.32c-1.28 3.84 0.64 8.32 5.12 9.6 3.84 1.28 8.32-0.64 9.6-5.12l2.56-8.32c1.28-3.84-0.64-8.32-5.12-9.6h-2.56zM504.96 503.04c-4.48 0-7.68 3.2-7.68 7.68s3.2 7.68 7.68 7.68h8.32c4.48 0 7.68-3.2 7.68-7.68s-3.2-7.68-7.68-7.68h-8.32zM581.12 465.28c-12.16 0-23.68 4.48-32 13.44-8.32 8.32-13.44 19.84-13.44 32s4.48 23.68 13.44 32c8.32 8.32 19.84 13.44 32 13.44s23.68-4.48 32-13.44c8.32-8.32 13.44-19.84 13.44-32s-4.48-23.68-13.44-32c-8.32-8.96-19.84-13.44-32-13.44z m0 75.52c-8.32 0-16-3.2-21.76-8.96-5.76-5.76-8.96-13.44-8.96-21.12 0-8.32 3.2-16 8.96-21.12 5.76-5.76 13.44-8.96 21.12-8.96 8.32 0 16 3.2 21.12 8.96 5.76 5.76 8.96 13.44 8.96 21.12 0 8.32-3.2 16-8.96 21.12-5.12 5.76-12.8 8.96-20.48 8.96zM78.08 102.4c-4.48 0-7.68 3.2-7.68 7.68l-0.64 648.96c0 1.92 0.64 3.84 1.92 5.12 1.28 1.28 3.2 1.92 5.12 1.92l855.68 0.64c4.48 0 7.68-3.2 7.68-7.68l0.64-648.96c0-1.92-0.64-3.84-1.92-5.12-1.28-1.28-3.2-1.92-5.12-1.92l-855.68-0.64z m7.04 648.96l0.64-633.6 840.32 0.64-0.64 633.6-840.32-0.64zM104.32 54.4c-2.56 0-5.12 1.28-6.4 3.84l-26.88 48c-1.92 3.84-0.64 8.32 3.2 10.24 3.84 1.92 8.32 0.64 10.24-3.2l24.32-44.16 864.64 0.64-0.64 657.92-44.16 24.32c-3.84 1.92-5.12 6.4-3.2 10.24 1.92 3.84 6.4 5.12 10.24 3.2l48-26.88c2.56-1.28 3.84-3.84 3.84-6.4l0.64-670.08c0-1.92-0.64-3.84-1.92-5.12-1.28-1.28-3.2-1.92-5.12-1.92l-876.8-0.64zM259.2 635.52c-4.48 0-7.68 3.2-7.68 7.68v37.76c0 4.48 3.2 7.68 7.68 7.68h37.76c1.92 0 3.84-0.64 5.12-1.92 1.28-1.28 1.92-3.2 1.92-5.12v-37.76c0-1.92-0.64-3.84-1.92-5.12-1.28-1.28-3.2-1.92-5.12-1.92l-37.76-1.28z m7.04 37.76v-22.4h23.04v23.04l-23.04-0.64zM713.6 635.52c-4.48 0-7.68 3.2-7.68 7.68v37.76c0 4.48 3.2 7.68 7.68 7.68h37.76c1.92 0 3.84-0.64 5.12-1.92 1.28-1.28 1.92-3.2 1.92-5.12v-37.76c0-1.92-0.64-3.84-1.92-5.12-1.28-1.28-3.2-1.92-5.12-1.92l-37.76-1.28z m7.04 37.76v-22.4h23.04v23.04l-23.04-0.64zM486.4 635.52c-4.48 0-7.68 3.2-7.68 7.68v37.76c0 4.48 3.2 7.68 7.68 7.68h37.76c1.92 0 3.84-0.64 5.12-1.92 1.28-1.28 1.92-3.2 1.92-5.12v-37.76c0-4.48-3.2-7.68-7.68-7.68l-37.12-0.64z m7.04 37.76v-22.4h23.04v23.04l-23.04-0.64zM259.2 408.32c-4.48 0-7.68 3.2-7.68 7.68v37.76c0 4.48 3.2 7.68 7.68 7.68h37.76c1.92 0 3.84-0.64 5.12-1.92 1.28-1.28 1.92-3.2 1.92-5.12v-37.76c0-1.92-0.64-3.84-1.92-5.12-1.28-1.28-3.2-1.92-5.12-1.92l-37.76-1.28z m7.68 37.76v-22.4h23.04v23.04l-23.04-0.64zM259.2 181.12c-4.48 0-7.68 3.2-7.68 7.68v37.76c0 4.48 3.2 7.68 7.68 7.68h37.76c1.92 0 3.84-0.64 5.12-1.92 1.28-1.28 1.92-3.2 1.92-5.12v-37.76c0-1.92-0.64-3.84-1.92-5.12-1.28-1.28-3.2-1.92-5.12-1.92l-37.76-1.28z m7.68 37.76v-22.4h23.04v23.04l-23.04-0.64zM486.4 181.12c-4.48 0-7.68 3.2-7.68 7.68v37.76c0 4.48 3.2 7.68 7.68 7.68h37.76c1.92 0 3.84-0.64 5.12-1.92 1.28-1.28 1.92-3.2 1.92-5.12v-37.76c0-4.48-3.2-7.68-7.68-7.68l-37.12-0.64z m7.68 37.76v-22.4h23.04v23.04l-23.04-0.64zM713.6 181.12c-4.48 0-7.68 3.2-7.68 7.68v37.76c0 4.48 3.2 7.68 7.68 7.68h37.76c1.92 0 3.84-0.64 5.12-1.92 1.28-1.28 1.92-3.2 1.92-5.12v-37.76c0-1.92-0.64-3.84-1.92-5.12-1.28-1.28-3.2-1.92-5.12-1.92l-37.76-1.28z m7.68 37.76v-22.4h23.04v23.04l-23.04-0.64zM713.6 408.32c-4.48 0-7.68 3.2-7.68 7.68v37.76c0 4.48 3.2 7.68 7.68 7.68h37.76c1.92 0 3.84-0.64 5.12-1.92 1.28-1.28 1.92-3.2 1.92-5.12v-37.76c0-1.92-0.64-3.84-1.92-5.12-1.28-1.28-3.2-1.92-5.12-1.92l-37.76-1.28z m7.68 37.76v-22.4h23.04v23.04l-23.04-0.64zM325.12 654.08h-1.28c-4.48 0-7.68 3.2-7.68 7.68s3.2 7.68 7.68 7.68h1.28c4.48 0 7.68-3.2 7.68-7.68s-3.84-7.68-7.68-7.68zM344.32 654.08c-4.48 0-7.68 3.2-7.68 7.68s3.2 7.68 7.68 7.68h3.2c4.48 0 7.68-3.2 7.68-7.68s-3.2-7.68-7.68-7.68h-3.2z m26.24 0h-3.2c-4.48 0-7.68 3.2-7.68 7.68s3.2 7.68 7.68 7.68h3.2c4.48 0 7.68-3.2 7.68-7.68 0-3.84-3.84-7.68-7.68-7.68z m22.4 0h-3.2c-4.48 0-7.68 3.2-7.68 7.68s3.2 7.68 7.68 7.68h3.2c4.48 0 7.68-3.2 7.68-7.68 0-3.84-3.2-7.68-7.68-7.68z m23.04 0h-3.2c-4.48 0-7.68 3.2-7.68 7.68s3.2 7.68 7.68 7.68h3.2c4.48 0 7.68-3.2 7.68-7.68-0.64-3.84-3.84-7.68-7.68-7.68z m22.4 0H435.2c-4.48 0-7.68 3.2-7.68 7.68s3.2 7.68 7.68 7.68h3.2c4.48 0 7.68-3.2 7.68-7.68 0-3.84-3.2-7.68-7.68-7.68zM457.6 654.72c-4.48 0-7.68 3.2-7.68 7.68s3.2 7.68 7.68 7.68h1.28c4.48 0 7.68-3.2 7.68-7.68s-3.2-7.68-7.68-7.68h-1.28zM552.32 654.72h-1.28c-4.48 0-7.68 3.2-7.68 7.68s3.2 7.68 7.68 7.68h1.28c4.48 0 7.68-3.2 7.68-7.68s-3.84-7.68-7.68-7.68zM571.52 654.72c-4.48 0-7.68 3.2-7.68 7.68s3.2 7.68 7.68 7.68h3.2c4.48 0 7.68-3.2 7.68-7.68s-3.2-7.68-7.68-7.68h-3.2z m26.24 0h-3.2c-4.48 0-7.68 3.2-7.68 7.68s3.2 7.68 7.68 7.68h3.2c4.48 0 7.68-3.2 7.68-7.68s-3.84-7.68-7.68-7.68z m22.4 0h-3.2c-4.48 0-7.68 3.2-7.68 7.68s3.2 7.68 7.68 7.68h3.2c4.48 0 7.68-3.2 7.68-7.68s-3.2-7.68-7.68-7.68z m23.04 0h-3.2c-4.48 0-7.68 3.2-7.68 7.68s3.2 7.68 7.68 7.68h3.2c4.48 0 7.68-3.2 7.68-7.68s-3.84-7.68-7.68-7.68z m22.4 0h-3.2c-4.48 0-7.68 3.2-7.68 7.68s3.2 7.68 7.68 7.68h3.2c4.48 0 7.68-3.2 7.68-7.68s-3.2-7.68-7.68-7.68zM685.44 654.72c-4.48 0-7.68 3.2-7.68 7.68s3.2 7.68 7.68 7.68h1.28c4.48 0 7.68-3.2 7.68-7.68s-3.2-7.68-7.68-7.68h-1.28zM325.12 199.68h-1.28c-4.48 0-7.68 3.2-7.68 7.68s3.2 7.68 7.68 7.68h1.28c4.48 0 7.68-3.2 7.68-7.68 0-3.84-3.2-7.68-7.68-7.68zM344.96 199.68c-4.48 0-7.68 3.2-7.68 7.68s3.2 7.68 7.68 7.68h3.2c4.48 0 7.68-3.2 7.68-7.68s-3.2-7.68-7.68-7.68h-3.2z m25.6 0h-3.2c-4.48 0-7.68 3.2-7.68 7.68s3.2 7.68 7.68 7.68h3.2c4.48 0 7.68-3.2 7.68-7.68s-3.2-7.68-7.68-7.68z m23.04 0H390.4c-4.48 0-7.68 3.2-7.68 7.68s3.2 7.68 7.68 7.68h3.2c4.48 0 7.68-3.2 7.68-7.68 0-3.84-3.84-7.68-7.68-7.68z m22.4 0h-3.2c-4.48 0-7.68 3.2-7.68 7.68s3.2 7.68 7.68 7.68h3.2c4.48 0 7.68-3.2 7.68-7.68s-3.2-7.68-7.68-7.68z m23.04 0h-3.2c-4.48 0-7.68 3.2-7.68 7.68s3.2 7.68 7.68 7.68h3.2c4.48 0 7.68-3.2 7.68-7.68-0.64-3.84-3.84-7.68-7.68-7.68zM458.24 199.68c-4.48 0-7.68 3.2-7.68 7.68s3.2 7.68 7.68 7.68h1.28c4.48 0 7.68-3.2 7.68-7.68s-3.2-7.68-7.68-7.68h-1.28zM552.32 200.32h-1.28c-4.48 0-7.68 3.2-7.68 7.68s3.2 7.68 7.68 7.68h1.28c4.48 0 7.68-3.2 7.68-7.68s-3.2-7.68-7.68-7.68zM572.16 200.32c-4.48 0-7.68 3.2-7.68 7.68s3.2 7.68 7.68 7.68h3.2c4.48 0 7.68-3.2 7.68-7.68s-3.2-7.68-7.68-7.68h-3.2z m25.6 0h-3.2c-4.48 0-7.68 3.2-7.68 7.68s3.2 7.68 7.68 7.68h3.2c4.48 0 7.68-3.2 7.68-7.68s-3.2-7.68-7.68-7.68z m23.04 0h-3.2c-4.48 0-7.68 3.2-7.68 7.68s3.2 7.68 7.68 7.68h3.2c4.48 0 7.68-3.2 7.68-7.68s-3.84-7.68-7.68-7.68z m22.4 0h-3.2c-4.48 0-7.68 3.2-7.68 7.68s3.2 7.68 7.68 7.68h3.2c4.48 0 7.68-3.2 7.68-7.68s-3.2-7.68-7.68-7.68z m23.04 0h-3.2c-4.48 0-7.68 3.2-7.68 7.68s3.2 7.68 7.68 7.68h3.2c4.48 0 7.68-3.2 7.68-7.68-0.64-4.48-3.84-7.68-7.68-7.68zM685.44 200.32c-4.48 0-7.68 3.2-7.68 7.68s3.2 7.68 7.68 7.68h1.28c4.48 0 7.68-3.2 7.68-7.68s-3.2-7.68-7.68-7.68h-1.28zM277.76 607.36c-4.48 0-7.68 3.2-7.68 7.68v1.28c0 4.48 3.2 7.68 7.68 7.68s7.68-3.2 7.68-7.68v-1.92c0-3.84-3.2-7.04-7.68-7.04zM277.76 493.44c-4.48 0-7.68 3.2-7.68 7.68v3.2c0 4.48 3.2 7.68 7.68 7.68s7.68-3.2 7.68-7.68v-3.2c0-3.84-3.2-7.68-7.68-7.68z m0 23.04c-4.48 0-7.68 3.2-7.68 7.68v3.2c0 4.48 3.2 7.68 7.68 7.68s7.68-3.2 7.68-7.68v-3.2c0-4.48-3.2-7.68-7.68-7.68z m0 22.4c-4.48 0-7.68 3.2-7.68 7.68v3.2c0 4.48 3.2 7.68 7.68 7.68s7.68-3.2 7.68-7.68v-3.2c0-3.84-3.2-7.68-7.68-7.68z m0 23.04c-4.48 0-7.68 3.2-7.68 7.68v3.2c0 4.48 3.2 7.68 7.68 7.68s7.68-3.2 7.68-7.68v-3.2c0-4.48-3.2-7.68-7.68-7.68z m0 22.4c-4.48 0-7.68 3.2-7.68 7.68V595.2c0 4.48 3.2 7.68 7.68 7.68s7.68-3.2 7.68-7.68v-3.2c0-4.48-3.2-7.68-7.68-7.68zM277.76 472.96c-4.48 0-7.68 3.2-7.68 7.68v1.28c0 4.48 3.2 7.68 7.68 7.68s7.68-3.2 7.68-7.68v-1.92c0-3.84-3.2-7.04-7.68-7.04zM278.4 380.16c-4.48 0-7.68 3.2-7.68 7.68v1.28c0 4.48 3.2 7.68 7.68 7.68s7.68-3.2 7.68-7.68v-1.28c-0.64-4.48-3.84-7.68-7.68-7.68zM278.4 266.24c-4.48 0-7.68 3.2-7.68 7.68v3.2c0 4.48 3.2 7.68 7.68 7.68s7.68-3.2 7.68-7.68v-3.2c-0.64-3.84-3.84-7.68-7.68-7.68z m0 23.04c-4.48 0-7.68 3.2-7.68 7.68v3.2c0 4.48 3.2 7.68 7.68 7.68s7.68-3.2 7.68-7.68v-3.2c-0.64-4.48-3.84-7.68-7.68-7.68z m0 22.4c-4.48 0-7.68 3.2-7.68 7.68v3.2c0 4.48 3.2 7.68 7.68 7.68s7.68-3.2 7.68-7.68v-3.2c-0.64-3.84-3.84-7.68-7.68-7.68z m0 23.04c-4.48 0-7.68 3.2-7.68 7.68V345.6c0 4.48 3.2 7.68 7.68 7.68s7.68-3.2 7.68-7.68v-3.2c-0.64-4.48-3.84-7.68-7.68-7.68z m0 22.4c-4.48 0-7.68 3.2-7.68 7.68v3.2c0 4.48 3.2 7.68 7.68 7.68s7.68-3.2 7.68-7.68v-3.2c-0.64-4.48-3.84-7.68-7.68-7.68zM278.4 245.76c-4.48 0-7.68 3.2-7.68 7.68v1.28c0 4.48 3.2 7.68 7.68 7.68s7.68-3.2 7.68-7.68v-1.28c0-4.48-3.84-7.68-7.68-7.68zM732.16 607.36c-4.48 0-7.68 3.2-7.68 7.68v1.28c0 4.48 3.2 7.68 7.68 7.68s7.68-3.2 7.68-7.68v-1.28c0-4.48-3.2-7.68-7.68-7.68zM732.16 494.08c-4.48 0-7.68 3.2-7.68 7.68v3.2c0 4.48 3.2 7.68 7.68 7.68s7.68-3.2 7.68-7.68v-3.2c0-4.48-3.2-7.68-7.68-7.68z m0 22.4c-4.48 0-7.68 3.2-7.68 7.68v3.2c0 4.48 3.2 7.68 7.68 7.68s7.68-3.2 7.68-7.68v-3.2c0-3.84-3.2-7.68-7.68-7.68z m0 23.04c-4.48 0-7.68 3.2-7.68 7.68V550.4c0 4.48 3.2 7.68 7.68 7.68s7.68-3.2 7.68-7.68v-3.2c0-4.48-3.2-7.68-7.68-7.68z m0 22.4c-4.48 0-7.68 3.2-7.68 7.68v3.2c0 4.48 3.2 7.68 7.68 7.68s7.68-3.2 7.68-7.68v-3.2c0-3.84-3.2-7.68-7.68-7.68z m0 23.04c-4.48 0-7.68 3.2-7.68 7.68v3.2c0 4.48 3.2 7.68 7.68 7.68s7.68-3.2 7.68-7.68v-3.2c0-4.48-3.2-7.68-7.68-7.68zM732.16 472.96c-4.48 0-7.68 3.2-7.68 7.68v1.28c0 4.48 3.2 7.68 7.68 7.68s7.68-3.2 7.68-7.68v-1.28c0-4.48-3.2-7.68-7.68-7.68zM732.8 380.16c-4.48 0-7.68 3.2-7.68 7.68v1.28c0 4.48 3.2 7.68 7.68 7.68s7.68-3.2 7.68-7.68v-1.28c-0.64-4.48-3.84-7.68-7.68-7.68zM732.8 266.88c-4.48 0-7.68 3.2-7.68 7.68v3.2c0 4.48 3.2 7.68 7.68 7.68s7.68-3.2 7.68-7.68v-3.2c0-4.48-3.84-7.68-7.68-7.68z m0 22.4c-4.48 0-7.68 3.2-7.68 7.68v3.2c0 4.48 3.2 7.68 7.68 7.68s7.68-3.2 7.68-7.68v-3.2c0-3.84-3.84-7.68-7.68-7.68z m0 23.04c-4.48 0-7.68 3.2-7.68 7.68v3.2c0 4.48 3.2 7.68 7.68 7.68s7.68-3.2 7.68-7.68v-3.2c-0.64-4.48-3.84-7.68-7.68-7.68z m0 22.4c-4.48 0-7.68 3.2-7.68 7.68V345.6c0 4.48 3.2 7.68 7.68 7.68s7.68-3.2 7.68-7.68v-3.2c-0.64-3.84-3.84-7.68-7.68-7.68z m0 23.04c-4.48 0-7.68 3.2-7.68 7.68v3.2c0 4.48 3.2 7.68 7.68 7.68s7.68-3.2 7.68-7.68v-3.2c-0.64-4.48-3.84-7.68-7.68-7.68zM732.8 245.76c-4.48 0-7.68 3.2-7.68 7.68v1.28c0 4.48 3.2 7.68 7.68 7.68s7.68-3.2 7.68-7.68v-1.28c0-4.48-3.84-7.68-7.68-7.68zM323.84 312.96c-1.28 0-1.92 0-3.2 0.64-3.84 1.92-5.12 6.4-3.84 10.24l107.52 227.2c1.28 2.56 3.84 4.48 7.04 4.48 3.2 0 5.76-1.92 7.04-4.48l108.16-227.2c1.92-3.84 0-8.32-3.84-10.24-3.84-1.92-8.32 0-10.24 3.84L431.36 529.92 330.88 317.44c-1.28-2.56-4.48-4.48-7.04-4.48zM581.12 313.6c-3.84 0-7.68 3.2-7.68 7.04v0.64c0 24.96 20.48 45.44 45.44 45.44 24.96 0 45.44-20.48 45.44-45.44l-7.68-0.64h-7.68c0 17.28-13.44 30.72-30.08 30.72S588.8 337.92 588.8 321.28c0-3.84-3.2-7.68-7.68-7.68zM686.72 313.6c-4.48 0-7.68 3.84-7.68 7.68 0 8.32-3.2 16-8.96 21.76-5.76 5.76-13.44 8.96-21.12 8.96-4.48 0-8.32-0.64-12.16-2.56-3.84-1.92-8.32 0-10.24 3.84-1.92 3.84 0 8.32 3.84 10.24 5.76 2.56 11.52 3.84 17.92 3.84 12.16 0 23.68-4.48 32-13.44 8.32-8.32 13.44-19.84 13.44-32v-0.64c0.64-4.48-2.56-7.68-7.04-7.68zM981.12 55.04c-1.92 0-3.84 0.64-5.12 1.92l-48 48c-3.2 3.2-3.2 7.68 0 10.88s7.68 3.2 10.88 0l48-48c3.2-3.2 3.2-7.68 0-10.88-1.28-1.28-3.84-1.92-5.76-1.92z"  horiz-adv-x="1024" />

    
    <glyph glyph-name="tirbe_icon_h" unicode="&#59005;" d="M109.44 794.24V441.6h432V794.24h109.44v-820.48H541.44V349.44H109.44v-375.68H0V794.24zM960-26.24V342.4h-128v49.28a330.24 330.24 0 0 1 50.56 3.84 142.72 142.72 0 0 1 44.8 15.36 106.24 106.24 0 0 1 32.64 29.44 115.84 115.84 0 0 1 18.56 48H1024v-512z"  horiz-adv-x="1024" />

    
    <glyph glyph-name="tirbe_icon_h1" unicode="&#59006;" d="M95.36 743.68v-309.12h378.88V743.68H569.6v-719.36H474.24V353.92H95.36v-329.6H0V743.68zM711.68 421.12a156.16 156.16 0 0 0 31.36 56.32 146.56 146.56 0 0 0 51.84 34.56 180.48 180.48 0 0 0 71.04 13.44 192 192 0 0 0 64-9.6 146.56 146.56 0 0 0 49.92-28.16 128 128 0 0 0 33.92-44.8A148.48 148.48 0 0 0 1024 384a153.6 153.6 0 0 0-10.24-58.88 166.4 166.4 0 0 0-27.52-46.08 235.52 235.52 0 0 0-39.04-36.48c-14.72-10.88-30.08-21.12-45.44-31.36l-46.72-28.16a304.64 304.64 0 0 1-43.52-29.44 233.6 233.6 0 0 1-33.28-33.28 97.28 97.28 0 0 1-17.92-41.6h256v-53.76h-326.4a274.56 274.56 0 0 0 16 76.8 209.28 209.28 0 0 0 31.36 55.04 239.36 239.36 0 0 0 43.52 40.96 529.92 529.92 0 0 0 51.2 32.64c21.12 13.44 40.32 25.6 56.32 37.12a279.04 279.04 0 0 1 40.32 33.28 121.6 121.6 0 0 1 23.68 37.12A115.84 115.84 0 0 1 960 384a90.24 90.24 0 0 1-7.68 37.76 87.68 87.68 0 0 1-51.84 46.72 106.24 106.24 0 0 1-37.76 6.4 87.04 87.04 0 0 1-45.44-10.88 94.08 94.08 0 0 1-30.72-28.8 104.32 104.32 0 0 1-17.28-40.32 150.4 150.4 0 0 1-4.48-44.8H704a212.48 212.48 0 0 0 7.68 71.04z"  horiz-adv-x="1024" />

    
    <glyph glyph-name="tirbe_icon_h2" unicode="&#59007;" d="M90.24 727.04v-291.2H448V727.04h88.96v-677.76H448V359.68H90.24v-310.4H0V727.04zM808.96 355.84H832a134.4 134.4 0 0 1 39.04 5.76 112 112 0 0 1 32.64 16.64 82.56 82.56 0 0 1 30.72 64 78.08 78.08 0 0 1-27.52 64 104.32 104.32 0 0 1-68.48 21.76 98.56 98.56 0 0 1-44.8-9.6 96 96 0 0 1-32-24.96 104.32 104.32 0 0 1-18.56-37.76 167.04 167.04 0 0 1-6.4-44.16h-64a241.92 241.92 0 0 0 12.16 70.4 168.32 168.32 0 0 0 31.36 54.4A147.84 147.84 0 0 0 768 576a187.52 187.52 0 0 0 71.04 12.8 215.04 215.04 0 0 0 64-8.96 151.04 151.04 0 0 0 51.84-25.6 128 128 0 0 0 34.56-44.8 155.52 155.52 0 0 0 12.16-64 104.32 104.32 0 0 0-21.12-64 136.96 136.96 0 0 0-53.12-42.24 112 112 0 0 0 73.6-46.08 147.2 147.2 0 0 0 23.04-88.96 165.76 165.76 0 0 0-14.72-71.04 157.44 157.44 0 0 0-39.68-51.2 177.92 177.92 0 0 0-58.88-30.72 262.4 262.4 0 0 0-71.68-10.24 229.76 229.76 0 0 0-74.88 11.52 156.16 156.16 0 0 0-56.32 33.92 143.36 143.36 0 0 0-36.48 55.04 192 192 0 0 0-11.52 74.24h64a128 128 0 0 1 30.72-87.68 104.96 104.96 0 0 1 84.48-33.28 149.12 149.12 0 0 1 44.8 7.04 138.24 138.24 0 0 1 37.12 20.48 96.64 96.64 0 0 1 24.96 32.64 99.2 99.2 0 0 1 9.6 44.16 97.28 97.28 0 0 1-8.96 44.16 94.72 94.72 0 0 1-24.32 32.64 97.92 97.92 0 0 1-35.84 19.84 169.6 169.6 0 0 1-45.44 6.4 247.04 247.04 0 0 1-38.4 0v55.04z"  horiz-adv-x="1024" />

    
    <glyph glyph-name="editor-bold" unicode="&#58880;" d="M576 234.667H426.667v128H576c35.413 0 64-28.587 64-64 0-35.414-28.587-64-64-64m-149.333 384h128c35.413 0 64-28.587 64-64 0-35.414-28.587-64-64-64h-128m238.933-55.04C706.987 464.64 736 512 736 554.667c0 96.426-74.667 170.666-170.667 170.666H298.667V128H599.04c89.6 0 158.293 72.533 158.293 161.707 0 64.853-36.693 120.32-91.733 145.92z"  horiz-adv-x="1024" />

    
    <glyph glyph-name="editor-clean" unicode="&#58881;" d="M777.933 311.91l214.835 207.872c40.96 39.63 40.96 99.021 0 138.65L777.933 866.304l-15.36 14.848C752.333 886.118 737.024 891.034 726.784 896h-40.909c-10.24 0-25.6-4.966-35.789-14.848l-15.36-14.848L31.232 277.248c-40.96-39.578-40.96-98.97 0-138.547l214.835-207.872c15.36-19.866 40.909-29.696 61.338-29.696h613.734v49.459H409.702l368.23 361.318zM312.525-49.408c-10.24 0-25.6 4.915-35.84 14.848L61.9 173.312c-5.12 9.933-10.24 19.814-10.24 34.662 0 14.848 5.12 24.73 15.36 34.663l332.441 321.74c0-19.814 10.24-34.662 25.6-49.51l214.784-207.872c15.36-14.848 30.72-19.814 46.08-24.78L353.434-39.527c-10.24-4.967-25.6-9.882-40.91-9.882z"  horiz-adv-x="1024" />

    
    <glyph glyph-name="editor-hr" unicode="&#58882;" d="M128 256v85.333h85.333V256H128m0 170.667V512h85.333v-85.333H128M298.667 256v85.333H384V256h-85.333m0 170.667V512H384v-85.333h-85.333M469.333 256v85.333h85.334V256h-85.334m0 170.667V512h85.334v-85.333h-85.334M640 256v85.333h85.333V256H640m0 170.667V512h85.333v-85.333H640M810.667 256v85.333H896V256h-85.333m0 170.667V512H896v-85.333h-85.333z"  horiz-adv-x="1024" />

    
    <glyph glyph-name="editor-html" unicode="&#58883;" d="M194.33 416.235H93.035v101.28H47v-267.03h46.035v119.7h101.28v-119.7h46.035v267.03h-46.035v-101.28z m82.875 64.455h73.665v-230.205h46.035V480.69h73.665v36.825H277.205v-36.825z m350.61-145.11L581.06 517.515h-73.665v-267.03h46.035V462.27l46.035-211.785h55.245l46.83 213.93-0.795-213.93h46.035v267.03h-73.665l-45.3-181.935z m220.275-48.27V517.515h-46.035v-267.03H977V287.31H848.09z"  horiz-adv-x="1024" />

    
    <glyph glyph-name="editor-fullscreen" unicode="&#58884;" d="M213.333 682.667h213.334v-85.334h-128v-128h-85.334V682.667m384 0h213.334v-213.334h-85.334v128h-128v85.334m128-384h85.334v-213.334H597.333v85.334h128v128m-298.666-128v-85.334H213.333V298.667h85.334v-128h128z"  horiz-adv-x="1024" />

    
    <glyph glyph-name="editor-image" unicode="&#58885;" d="M554.667 512h234.666L554.667 746.667V512M256 810.667h341.333l256-256v-512c0-46.934-38.4-85.334-85.333-85.334H256c-47.36 0-85.333 38.4-85.333 85.334V725.333A85.038 85.038 0 0 0 256 810.667m0-768h512V384L597.333 213.333 512 298.667l-256-256M341.333 512C294.4 512 256 473.6 256 426.667c0-46.934 38.4-85.334 85.333-85.334 46.934 0 85.334 38.4 85.334 85.334 0 46.933-38.4 85.333-85.334 85.333z"  horiz-adv-x="1024" />

    
    <glyph glyph-name="editor-align-justify" unicode="&#58886;" d="M128 768h768v-85.333H128V768m0-170.667h768V512H128v85.333m0-170.666h768v-85.334H128v85.334M128 256h768v-85.333H128V256m0-170.667h768V0H128v85.333z"  horiz-adv-x="1024" />

    
    <glyph glyph-name="editor-align-left" unicode="&#58887;" d="M128 768h768v-85.333H128V768m0-170.667h512V512H128v85.333m0-170.666h768v-85.334H128v85.334M128 256h512v-85.333H128V256m0-170.667h768V0H128v85.333z"  horiz-adv-x="1024" />

    
    <glyph glyph-name="editor-link" unicode="&#58888;" d="M879.2 764.4c-103 95.5-264.1 88-361.4-11.2L474.7 712c-13.1-13.1-3.7-35.6 13.1-37.5 26.2-1.9 52.4-7.5 78.7-15 7.5-1.9 16.9 0 22.5 5.6l9.4 9.4c54.3 54.3 142.3 59.9 198.5 11.2 63.7-54.3 65.5-151.7 7.5-209.7L662 333.7c-18.7-18.7-41.2-30-63.7-37.5-30-7.5-61.8-5.6-89.9 5.6-16.9 7.5-33.7 16.9-48.7 31.8-7.5 7.5-13.1 15-18.7 24.3-7.5 13.1-24.3 15-33.7 3.7l-52.4-52.4c-7.5-7.5-7.5-18.7-1.9-28.1 7.5-11.2 16.9-20.6 26.2-30 13.1-13.1 30-26.2 44.9-35.6 26.2-16.9 56.2-28.1 86.1-33.7 58.1-11.2 121.7-1.9 174.2 26.2 20.6 11.2 41.2 26.2 58.1 43.1l142.3 142.3c104.9 103.2 101.2 271.8-5.6 371zM534.7 92.1l-39.3 5.6s-26.2 5.6-39.3 11.2c-7.5 1.9-16.9 0-22.5-5.6l-9.4-9.4c-54.3-54.3-142.3-59.9-198.5-11.2-63.7 54.3-65.5 151.7-7.5 209.7l142.3 142.3c18.7 18.7 41.2 30 63.7 37.5 30 7.5 61.8 5.6 89.9-5.6 16.9-7.5 33.7-16.9 48.7-31.8 7.5-7.5 13.1-15 18.7-24.3 7.5-13.1 24.3-15 33.7-3.7l52.4 52.4c7.5 7.5 7.5 18.7 1.9 28.1-7.5 11.2-16.9 20.6-26.2 30-13.1 13.1-28.1 26.2-44.9 35.6-26.2 16.9-56.2 28.1-88 33.7-58.1 11.2-121.7 1.9-174.2-26.2-20.6-11.2-41.2-26.2-58.1-43.1L141.4 380.5c-99.3-99.3-106.7-260.3-11.2-361.4C229.5-89.5 398-91.4 501 11.6l46.8 46.8c13.1 9.4 3.7 31.9-13.1 33.7z"  horiz-adv-x="1024" />

    
    <glyph glyph-name="editor-list-numbers" unicode="&#58889;" d="M298.667 341.333H896v85.334H298.667m0-341.334H896v85.334H298.667m0 426.666H896v85.334H298.667m-213.334-256h76.8l-76.8-89.6v-38.4h128v42.666h-76.8l76.8 89.6v38.4h-128M128 554.667h42.667V725.333H85.333v-42.666H128m-42.667-512h85.334v-21.334H128v-42.666h42.667v-21.334H85.333v-42.666h128V213.333h-128v-42.666z"  horiz-adv-x="1024" />

    
    <glyph glyph-name="editor-italic" unicode="&#58890;" d="M426.667 725.333v-128h94.293L375.04 256H256v-128h341.333V256H503.04l145.92 341.333H768v128H426.667z"  horiz-adv-x="1024" />

    
    <glyph glyph-name="editor-preview" unicode="&#58891;" d="M232.107 876.495h90.892c14.19 0 24.283-7.314 30.525-19.505a34.23 34.23 0 0 0-0.975-34.864 34.475 34.475 0 0 0-31.696-18.042c-46.275 0.195-92.745 0.195-139.069 0-19.7 0-38.522-4.047-55.588-14.287-35.304-21.456-53.882-53.443-54.467-95.232-0.537-37.742-0.195-75.484-0.195-113.226 0-7.948-0.976-15.506-5.315-22.674a35.596 35.596 0 0 0-39.985-16.238A35.889 35.889 0 0 0 0.195 576.902c0 49.542-0.536 99.28 0.195 148.821 0.585 50.323 21.65 90.6 60.709 120.93 22.04 17.067 47.055 26.575 74.41 29.452 2.097 0.39 4.535 0.39 7.022 0.39h89.576z m526.384 0h-90.94c-14.239 0-24.333-7.314-30.574-19.505a34.23 34.23 0 0 1 0.975-34.864c6.973-11.996 17.603-18.042 31.695-18.042 46.275 0.195 92.745 0.195 139.07 0 19.699 0 38.521-4.047 55.588-14.287 35.303-21.456 53.882-53.443 54.467-95.232 0.536-37.742 0.195-75.484 0.195-113.226 0-7.948 0.975-15.506 5.315-22.674a35.596 35.596 0 0 1 39.985-16.238 35.889 35.889 0 0 1 26.039 34.475c0 49.542 0.585 99.28-0.196 148.821-0.585 50.323-21.65 90.6-60.708 120.93a144.14 144.14 0 0 1-74.41 29.452 95.28 95.28 0 0 1-7.169 0.39h-89.332zM232.107-100.937h90.892c14.19 0 24.283 7.314 30.525 19.505a34.23 34.23 0 0 1-0.975 34.864 34.475 34.475 0 0 1-31.696 18.042c-46.275-0.195-92.745-0.195-139.069 0-19.7 0-38.522 4.048-55.588 14.288-35.304 21.455-53.882 53.443-54.467 95.232-0.537 37.741-0.195 75.483-0.195 113.225a41.545 41.545 0 0 1-5.315 22.674 35.596 35.596 0 0 1-39.985 16.238A35.889 35.889 0 0 1 0.195 198.705c0-49.591-0.536-99.328 0.195-148.87 0.585-50.323 21.65-90.6 60.709-120.93a144.14 144.14 0 0 1 81.627-29.842h89.38z m526.384 0h-90.94c-14.239 0-24.333 7.314-30.574 19.505a34.23 34.23 0 0 0 0.975 34.864 34.475 34.475 0 0 0 31.695 18.042c46.275-0.195 92.745-0.195 139.07 0 19.699 0 38.521 4.048 55.588 14.288 35.303 21.455 53.882 53.443 54.467 95.232 0.536 37.741 0.195 75.483 0.195 113.225 0 7.948 0.975 15.506 5.315 22.674a35.596 35.596 0 0 0 39.985 16.238 35.889 35.889 0 0 0 26.039-34.426c0-49.591 0.585-99.328-0.196-148.87-0.585-50.323-21.65-90.6-60.708-120.93a144.14 144.14 0 0 0-81.628-29.842h-89.331zM202.313 195.389c5.657-14.531 17.262-23.016 30.915-23.016h520.875c9.265 0 17.457 3.901 24.088 11.606 6.632 7.753 13.507 17.213 13.507 28.282V550.912c0 29.403-11.995 44.13-25.648 49.932-13.654 5.998-28.087 1.512-37.547-11.215l-181.59-246.004a30.769 30.769 0 0 0-25.648-13.75 30.769 30.769 0 0 0-25.6 13.75l-80.847 109.568a31.354 31.354 0 0 1-25.844 13.751c-10.24 0-18.92-4.876-25.747-13.946l-155.794-215.04a43.74 43.74 0 0 1-5.12-42.569z"  horiz-adv-x="1024" />

    
    <glyph glyph-name="editor-strikethrough" unicode="&#58892;" d="M898.719 384v-70.312H744.383c35.156-75.235 33.398-281.25-219.024-281.25-292.851-1.758-281.601 228.515-281.601 228.515l139.57-1.758c1.055-118.476 111.094-118.476 132.89-117.07 22.5 1.758 106.524 1.406 113.204 83.672 2.812 38.32-35.86 67.5-78.047 87.89H125.281V384H898.72M772.508 528.492l-139.922 1.055s5.976 97.383-115.313 97.734c-121.289 0.703-110.742-77.343-110.742-87.187 1.407-9.844 11.953-58.36 105.469-81.563H290.867S168.172 695.133 467.703 735.563c306.211 42.187 305.508-207.774 304.805-207.07z"  horiz-adv-x="1024" />

    
    <glyph glyph-name="editor-redo" unicode="&#58893;" d="M946.8 476L651.9 770.9c-19.5 19.5-52.7 5.7-52.7-21.8v-174c-79.3 1.8-501.8-14.9-532.3-569.6-0.9-17.2 22.1-24.3 30.6-9.3C255 275 396.6 342.7 599.1 334.5v-175.2c0-27.5 33.3-41.3 52.8-21.9l294.8 294.9c12.1 12.1 12.1 31.6 0.1 43.7z"  horiz-adv-x="1024" />

    
    <glyph glyph-name="editor-underline" unicode="&#58894;" d="M232 24h560v80H232v-80m280 160c132.4 0 240 107.6 240 240V744H652v-320c0-77.2-62.8-140-140-140s-140 62.8-140 140V744H272v-320c0-132.4 107.6-240 240-240z"  horiz-adv-x="1024" />

    
    <glyph glyph-name="editor-undo" unicode="&#58895;" d="M76 432.3l294.8-294.9c19.5-19.4 52.8-5.6 52.8 21.9V334.5c202.5 8.2 344.1-59.5 501.6-338.3 8.5-15 31.5-7.9 30.6 9.3-30.5 554.7-453 571.4-532.3 569.6v174c0 27.5-33.2 41.3-52.7 21.8L75.9 476c-12-12.1-12-31.6 0.1-43.7z"  horiz-adv-x="1024" />

    
    <glyph glyph-name="editor-align-center" unicode="&#58896;" d="M128 768h768v-85.333H128V768m170.667-170.667h426.666V512H298.667v85.333M128 426.667h768v-85.334H128v85.334M298.667 256h426.666v-85.333H298.667V256M128 85.333h768V0H128v85.333z"  horiz-adv-x="1024" />

    
    <glyph glyph-name="editor-upload" unicode="&#58897;" d="M768 640h128L704 832v-128c0-51.2 12.8-64 64-64z m-128-21.312V832H213.312C166.4 832 128 793.6 128 746.688v-725.312C128-25.6 166.4-64 213.312-64h597.312C857.6-64 896-25.6 896 21.312V576H682.688C667.264 576 640 588.864 640 618.688z m-13.248-285.12H557.12V207.04c0-7.04-7.168-12.8-16-12.8h-57.6c-8.832 0-16 5.76-16 12.8V333.568h-69.76a32.128 32.128 0 0 0-23.808 53.44l90.688 100.736a64 64 0 0 0 95.104 0l90.688-100.736a31.936 31.936 0 0 0 8.192-21.44 31.808 31.808 0 0 0-31.872-32z"  horiz-adv-x="1024" />

    
    </font>
</defs>
</svg>
